<svg version="1.2" xmlns="http://www.w3.org/2000/svg" viewBox="0 0 900 500" width="900" height="500">
	<title>imageillustration-PARALLAX</title>
	<defs>
		<clipPath clipPathUnits="userSpaceOnUse" id="cp1">
			<path d="m900.19-0.1v500.1h-900.18v-500.1z"/>
		</clipPath>
		<linearGradient id="g1" x2="1" gradientUnits="userSpaceOnUse" gradientTransform="matrix(0,-379.624,160.095,0,370.051,379.523)">
			<stop offset="0" stop-color="#31ffbd"/>
			<stop offset=".494" stop-color="#255ec2"/>
			<stop offset=".994" stop-color="#000041"/>
		</linearGradient>
		<linearGradient id="g2" x2="1" gradientUnits="userSpaceOnUse" gradientTransform="matrix(0,-296.624,177.867,0,322.962,387.627)">
			<stop offset=".006" stop-color="#0480b4"/>
			<stop offset=".411" stop-color="#1a5ebc"/>
			<stop offset="1" stop-color="#0e1667"/>
		</linearGradient>
		<linearGradient id="g3" x2="1" gradientUnits="userSpaceOnUse" gradientTransform="matrix(0,-236.327,207.939,0,661.924,322.414)">
			<stop offset="0" stop-color="#2e509c"/>
			<stop offset=".994" stop-color="#180063"/>
		</linearGradient>
		<linearGradient id="g4" x2="1" gradientUnits="userSpaceOnUse" gradientTransform="matrix(0,-13.513,2.859,0,505.95,361.612)">
			<stop offset=".006" stop-color="#ff9357"/>
			<stop offset="1" stop-color="#ec687f"/>
		</linearGradient>
		<linearGradient id="g5" x2="1" gradientUnits="userSpaceOnUse" gradientTransform="matrix(0,-233.604,114.781,0,180.334,384.573)">
			<stop offset="0" stop-color="#2e509c"/>
			<stop offset=".994" stop-color="#180063"/>
		</linearGradient>
		<linearGradient id="g6" x2="1" gradientUnits="userSpaceOnUse" gradientTransform="matrix(0,-127.106,24.924,0,311.783,375.09)">
			<stop offset="0" stop-color="#00a4ff"/>
			<stop offset=".547" stop-color="#000000"/>
		</linearGradient>
		<radialGradient id="g7" cx="0" cy="0" r="1" gradientUnits="userSpaceOnUse" gradientTransform="matrix(334.032,0,0,334.032,450.098,356.566)">
			<stop offset="0" stop-color="#0e5ba4"/>
			<stop offset=".994" stop-color="#3d2cc9"/>
		</radialGradient>
		<linearGradient id="g8" x2="1" gradientUnits="userSpaceOnUse" gradientTransform="matrix(0,-0.64,3.673,0,497.047,314.712)">
			<stop offset=".006" stop-color="#759100"/>
			<stop offset="1" stop-color="#9d9d01"/>
		</linearGradient>
	</defs>
	<style>
		.s0 { fill: url(#g1) } 
		.s1 { fill: #227ff9 } 
		.s2 { fill: #d4dbef } 
		.s3 { fill: #6f88ef } 
		.s4 { fill: url(#g2) } 
		.s5 { opacity: .2;mix-blend-mode: multiply;fill: #654390 } 
		.s6 { opacity: .44;mix-blend-mode: soft-light;fill: #8baedd } 
		.s7 { fill: url(#g3) } 
		.s8 { opacity: .3;mix-blend-mode: multiply;fill: #433b8d } 
		.s9 { fill: #433b8d } 
		.s10 { fill: url(#g4) } 
		.s11 { fill: url(#g5) } 
		.s12 { opacity: .83;mix-blend-mode: screen;fill: url(#g6) } 
		.s13 { fill: url(#g7) } 
		.s14 { mix-blend-mode: multiply;fill: #edd4d8 } 
		.s15 { opacity: .3;mix-blend-mode: multiply;fill: #3e399c } 
		.s16 { fill: url(#g8) } 
		.s17 { opacity: .44;mix-blend-mode: soft-light;fill: #77a7ff } 
		.s18 { opacity: .44;mix-blend-mode: soft-light;fill: #7c9aff } 
		.s19 { fill: #00bae0 } 
	</style>
	<g id="background">
		<g id="&lt;Clip Group&gt;" clip-path="url(#cp1)">
			<g id="&lt;Group&gt;">
				<path id="&lt;Path&gt;" fill-rule="evenodd" class="s0" d="m900.2-0.1v379.6h-900.2v-379.6z"/>
				<g id="&lt;Group&gt;">
					<path id="&lt;Path&gt;" fill-rule="evenodd" class="s1" d="m983.9 117.2c-0.6 0-1.1-0.4-1.1-1 0-0.6 0.5-1 1.1-1 0.6 0 1 0.4 1 1 0 0.6-0.4 1-1 1z"/>
					<path id="&lt;Path&gt;" fill-rule="evenodd" class="s1" d="m1011.7 227.3c-0.5 0-1-0.4-1-1 0-0.6 0.5-1.1 1-1.1 0.6 0 1.1 0.5 1.1 1.1 0 0.6-0.5 1-1.1 1z"/>
					<path id="&lt;Path&gt;" fill-rule="evenodd" class="s1" d="m1002.6 223.1c-0.6 0-1-0.4-1-1 0-0.6 0.4-1 1-1 0.6 0 1 0.4 1 1 0 0.6-0.4 1-1 1z"/>
					<path id="&lt;Path&gt;" fill-rule="evenodd" class="s1" d="m1005.5 231.7c-0.6 0-1-0.5-1-1.1 0-0.5 0.4-1 1-1 0.6 0 1 0.5 1 1 0 0.6-0.4 1.1-1 1.1z"/>
					<path id="&lt;Path&gt;" fill-rule="evenodd" class="s1" d="m932.7 109.4c-0.6 0-1-0.4-1-1 0-0.6 0.4-1 1-1 0.6 0 1 0.4 1 1 0 0.6-0.4 1-1 1z"/>
					<path id="&lt;Path&gt;" fill-rule="evenodd" class="s1" d="m1013.6 152.1c-0.6 0-1-0.5-1-1.1 0-0.5 0.4-1 1-1 0.5 0 1 0.5 1 1 0 0.6-0.5 1.1-1 1.1z"/>
					<path id="&lt;Path&gt;" fill-rule="evenodd" class="s1" d="m1030 238.5c-0.5 0-1-0.5-1-1 0-0.6 0.5-1.1 1-1.1 0.6 0 1.1 0.5 1.1 1.1 0 0.5-0.5 1-1.1 1z"/>
					<path id="&lt;Path&gt;" fill-rule="evenodd" class="s1" d="m946.1 254.9c-0.6 0-1-0.5-1-1 0-0.6 0.4-1 1-1 0.6 0 1 0.4 1 1 0 0.5-0.4 1-1 1z"/>
					<path id="&lt;Path&gt;" fill-rule="evenodd" class="s1" d="m978.5 72.4c0 0.5-0.4 0.9-0.9 0.9-0.4 0-0.8-0.4-0.8-0.9 0-0.4 0.4-0.8 0.8-0.8 0.5 0 0.9 0.4 0.9 0.8z"/>
					<path id="&lt;Path&gt;" fill-rule="evenodd" class="s1" d="m847.6 63.6c0 0.5-0.4 0.9-0.8 0.9-0.5 0-0.9-0.4-0.9-0.9 0-0.5 0.4-0.9 0.9-0.9 0.4 0 0.8 0.4 0.8 0.9z"/>
					<path id="&lt;Path&gt;" fill-rule="evenodd" class="s1" d="m975.8 59.6c0 0.5-0.4 0.9-0.9 0.9-0.5 0-0.8-0.4-0.8-0.9 0-0.5 0.3-0.8 0.8-0.8 0.5 0 0.9 0.3 0.9 0.8z"/>
					<path id="&lt;Path&gt;" fill-rule="evenodd" class="s1" d="m998.7 62.7c0 0.5-0.4 0.9-0.9 0.9-0.4 0-0.8-0.4-0.8-0.9 0-0.4 0.4-0.8 0.8-0.8 0.5 0 0.9 0.4 0.9 0.8z"/>
					<path id="&lt;Path&gt;" fill-rule="evenodd" class="s1" d="m896.1 136.9c0 0.4-0.4 0.8-0.9 0.8-0.5 0-0.8-0.4-0.8-0.8 0-0.5 0.3-0.9 0.8-0.9 0.5 0 0.9 0.4 0.9 0.9z"/>
					<path id="&lt;Path&gt;" fill-rule="evenodd" class="s1" d="m886.3 66.4c0 0.5-0.4 0.8-0.8 0.8-0.5 0-0.9-0.3-0.9-0.8 0-0.5 0.4-0.9 0.9-0.9 0.4 0 0.8 0.4 0.8 0.9z"/>
					<path id="&lt;Path&gt;" fill-rule="evenodd" class="s1" d="m868 119c0 0.4-0.3 0.8-0.8 0.8-0.5 0-0.9-0.4-0.9-0.8 0-0.5 0.4-0.9 0.9-0.9 0.5 0 0.8 0.4 0.8 0.9z"/>
					<path id="&lt;Path&gt;" fill-rule="evenodd" class="s1" d="m1019.6 89.7c0 0.5-0.4 0.9-0.9 0.9-0.5 0-0.8-0.4-0.8-0.9 0-0.5 0.3-0.8 0.8-0.8 0.5 0 0.9 0.3 0.9 0.8z"/>
					<path id="&lt;Path&gt;" fill-rule="evenodd" class="s1" d="m942.4 88.9c0 0.4-0.4 0.8-0.9 0.8-0.4 0-0.8-0.4-0.8-0.8 0-0.5 0.4-0.9 0.8-0.9 0.5 0 0.9 0.4 0.9 0.9z"/>
					<path id="&lt;Path&gt;" fill-rule="evenodd" class="s2" d="m950.9 115.2c0 0.4-0.4 0.8-0.8 0.8-0.5 0-0.9-0.4-0.9-0.8 0-0.5 0.4-0.9 0.9-0.9 0.4 0 0.8 0.4 0.8 0.9z"/>
					<path id="&lt;Path&gt;" fill-rule="evenodd" class="s2" d="m895 294.3c0 0.5-0.3 0.8-0.8 0.8-0.5 0-0.9-0.3-0.9-0.8 0-0.5 0.4-0.9 0.9-0.9 0.5 0 0.8 0.4 0.8 0.9z"/>
					<path id="&lt;Path&gt;" fill-rule="evenodd" class="s1" d="m830.8 125.1c0 0.4-0.4 0.8-0.8 0.8-0.5 0-0.9-0.4-0.9-0.8 0-0.5 0.4-0.9 0.9-0.9 0.4 0 0.8 0.4 0.8 0.9z"/>
					<path id="&lt;Path&gt;" fill-rule="evenodd" class="s1" d="m219.2 117.7c-0.6 0-1.1-0.5-1.1-1.1 0-0.6 0.5-1 1.1-1 0.6 0 1 0.4 1 1 0 0.6-0.4 1.1-1 1.1z"/>
					<path id="&lt;Path&gt;" fill-rule="evenodd" class="s1" d="m94.9 154.4c-0.6 0-1.1-0.4-1.1-1 0-0.6 0.5-1.1 1.1-1.1 0.5 0 1 0.5 1 1.1 0 0.6-0.5 1-1 1z"/>
					<path id="&lt;Path&gt;" fill-rule="evenodd" class="s1" d="m68.2 272.6c-0.6 0-1-0.5-1-1.1 0-0.5 0.4-1 1-1 0.6 0 1 0.5 1 1 0 0.6-0.4 1.1-1 1.1z"/>
					<path id="&lt;Path&gt;" fill-rule="evenodd" class="s1" d="m168 109.8c-0.6 0-1-0.4-1-1 0-0.5 0.4-1 1-1 0.6 0 1 0.5 1 1 0 0.6-0.4 1-1 1z"/>
					<path id="&lt;Path&gt;" fill-rule="evenodd" class="s1" d="m79.8 245.5c-0.5 0-1-0.5-1-1.1 0-0.5 0.5-1 1-1 0.6 0 1.1 0.5 1.1 1 0 0.6-0.5 1.1-1.1 1.1z"/>
					<path id="&lt;Path&gt;" fill-rule="evenodd" class="s1" d="m191.6 145.4c-0.5 0-1-0.5-1-1 0-0.6 0.5-1 1-1 0.6 0 1.1 0.4 1.1 1 0 0.5-0.5 1-1.1 1z"/>
					<path id="&lt;Path&gt;" fill-rule="evenodd" class="s1" d="m213.8 72.8c0 0.5-0.4 0.9-0.9 0.9-0.4 0-0.8-0.4-0.8-0.9 0-0.4 0.4-0.8 0.8-0.8 0.5 0 0.9 0.4 0.9 0.8z"/>
					<path id="&lt;Path&gt;" fill-rule="evenodd" class="s1" d="m82.9 64c0 0.5-0.3 0.9-0.8 0.9-0.5 0-0.9-0.4-0.9-0.9 0-0.5 0.4-0.8 0.9-0.8 0.5 0 0.8 0.3 0.8 0.8z"/>
					<path id="&lt;Path&gt;" fill-rule="evenodd" class="s1" d="m211.1 60c0 0.5-0.4 0.9-0.9 0.9-0.4 0-0.8-0.4-0.8-0.9 0-0.4 0.4-0.8 0.8-0.8 0.5 0 0.9 0.4 0.9 0.8z"/>
					<path id="&lt;Path&gt;" fill-rule="evenodd" class="s1" d="m402.3 124.6c0 0.5-0.3 0.9-0.8 0.9-0.5 0-0.9-0.4-0.9-0.9 0-0.4 0.4-0.8 0.9-0.8 0.5 0 0.8 0.4 0.8 0.8z"/>
					<path id="&lt;Path&gt;" fill-rule="evenodd" class="s1" d="m234 63.2c0 0.4-0.4 0.8-0.8 0.8-0.5 0-0.9-0.4-0.9-0.8 0-0.5 0.4-0.9 0.9-0.9 0.4 0 0.8 0.4 0.8 0.9z"/>
					<path id="&lt;Path&gt;" fill-rule="evenodd" class="s1" d="m414.4 118.5c0 0.5-0.4 0.9-0.8 0.9-0.5 0-0.9-0.4-0.9-0.9 0-0.4 0.4-0.8 0.9-0.8 0.4 0 0.8 0.4 0.8 0.8z"/>
					<path id="&lt;Path&gt;" fill-rule="evenodd" class="s1" d="m376.5 87.9c0 0.5-0.4 0.9-0.8 0.9-0.5 0-0.9-0.4-0.9-0.9 0-0.4 0.4-0.8 0.9-0.8 0.4 0 0.8 0.4 0.8 0.8z"/>
					<path id="&lt;Path&gt;" fill-rule="evenodd" class="s1" d="m252.9 274.1c0 0.5-0.3 0.9-0.8 0.9-0.5 0-0.9-0.4-0.9-0.9 0-0.5 0.4-0.8 0.9-0.8 0.5 0 0.8 0.3 0.8 0.8z"/>
					<path id="&lt;Path&gt;" fill-rule="evenodd" class="s1" d="m131.4 137.3c0 0.5-0.4 0.8-0.9 0.8-0.5 0-0.8-0.3-0.8-0.8 0-0.5 0.3-0.9 0.8-0.9 0.5 0 0.9 0.4 0.9 0.9z"/>
					<path id="&lt;Path&gt;" fill-rule="evenodd" class="s1" d="m121.6 66.8c0 0.5-0.4 0.9-0.8 0.9-0.5 0-0.9-0.4-0.9-0.9 0-0.5 0.4-0.8 0.9-0.8 0.4 0 0.8 0.3 0.8 0.8z"/>
					<path id="&lt;Path&gt;" fill-rule="evenodd" class="s1" d="m164.2 166.8c0 0.5-0.4 0.9-0.8 0.9-0.5 0-0.9-0.4-0.9-0.9 0-0.4 0.4-0.8 0.9-0.8 0.4 0 0.8 0.4 0.8 0.8z"/>
					<path id="&lt;Path&gt;" fill-rule="evenodd" class="s1" d="m103.4 119.4c0 0.5-0.4 0.8-0.9 0.8-0.5 0-0.8-0.3-0.8-0.8 0-0.5 0.3-0.9 0.8-0.9 0.5 0 0.9 0.4 0.9 0.9z"/>
					<path id="&lt;Path&gt;" fill-rule="evenodd" class="s1" d="m71.8 202.4c0 0.5-0.4 0.9-0.8 0.9-0.5 0-0.9-0.4-0.9-0.9 0-0.4 0.4-0.8 0.9-0.8 0.4 0 0.8 0.4 0.8 0.8z"/>
					<path id="&lt;Path&gt;" fill-rule="evenodd" class="s1" d="m83.8 249.6c0 0.4-0.4 0.8-0.9 0.8-0.4 0-0.8-0.4-0.8-0.8 0-0.5 0.4-0.9 0.8-0.9 0.5 0 0.9 0.4 0.9 0.9z"/>
					<path id="&lt;Path&gt;" fill-rule="evenodd" class="s1" d="m256.7 302c0 0.5-0.4 0.9-0.8 0.9-0.5 0-0.9-0.4-0.9-0.9 0-0.5 0.4-0.9 0.9-0.9 0.4 0 0.8 0.4 0.8 0.9z"/>
					<path id="&lt;Path&gt;" fill-rule="evenodd" class="s1" d="m102.3 148.3c0 0.5-0.4 0.9-0.8 0.9-0.5 0-0.9-0.4-0.9-0.9 0-0.4 0.4-0.8 0.9-0.8 0.4 0 0.8 0.4 0.8 0.8z"/>
					<path id="&lt;Path&gt;" fill-rule="evenodd" class="s1" d="m254.9 90.1c0 0.5-0.4 0.9-0.9 0.9-0.4 0-0.8-0.4-0.8-0.9 0-0.4 0.4-0.8 0.8-0.8 0.5 0 0.9 0.4 0.9 0.8z"/>
					<path id="&lt;Path&gt;" fill-rule="evenodd" class="s1" d="m268.3 292.3c0 0.5-0.4 0.9-0.9 0.9-0.5 0-0.8-0.4-0.8-0.9 0-0.5 0.3-0.8 0.8-0.8 0.5 0 0.9 0.3 0.9 0.8z"/>
					<path id="&lt;Path&gt;" fill-rule="evenodd" class="s2" d="m369.9 90.1c0 0.5-0.4 0.9-0.8 0.9-0.5 0-0.9-0.4-0.9-0.9 0-0.4 0.4-0.8 0.9-0.8 0.4 0 0.8 0.4 0.8 0.8z"/>
					<path id="&lt;Path&gt;" fill-rule="evenodd" class="s2" d="m260.6 309.6c0 0.5-0.3 0.9-0.8 0.9-0.5 0-0.9-0.4-0.9-0.9 0-0.5 0.4-0.8 0.9-0.8 0.5 0 0.8 0.3 0.8 0.8z"/>
					<path id="&lt;Path&gt;" fill-rule="evenodd" class="s2" d="m249.5 281c0 0.5-0.4 0.8-0.9 0.8-0.5 0-0.8-0.3-0.8-0.8 0-0.5 0.3-0.9 0.8-0.9 0.5 0 0.9 0.4 0.9 0.9z"/>
					<path id="&lt;Path&gt;" fill-rule="evenodd" class="s2" d="m357.8 298.9c0 0.4-0.4 0.8-0.9 0.8-0.5 0-0.9-0.4-0.9-0.8 0-0.5 0.4-0.9 0.9-0.9 0.5 0 0.9 0.4 0.9 0.9z"/>
					<path id="&lt;Path&gt;" fill-rule="evenodd" class="s1" d="m177.7 89.3c0 0.5-0.4 0.8-0.9 0.8-0.4 0-0.8-0.3-0.8-0.8 0-0.5 0.4-0.9 0.8-0.9 0.5 0 0.9 0.4 0.9 0.9z"/>
					<path id="&lt;Path&gt;" fill-rule="evenodd" class="s1" d="m186.2 115.6c0 0.4-0.4 0.8-0.8 0.8-0.5 0-0.9-0.4-0.9-0.8 0-0.5 0.4-0.9 0.9-0.9 0.4 0 0.8 0.4 0.8 0.9z"/>
					<path id="&lt;Path&gt;" fill-rule="evenodd" class="s1" d="m66.1 125.5c0 0.4-0.3 0.8-0.8 0.8-0.5 0-0.9-0.4-0.9-0.8 0-0.5 0.4-0.9 0.9-0.9 0.5 0 0.8 0.4 0.8 0.9z"/>
					<path id="&lt;Path&gt;" fill-rule="evenodd" class="s1" d="m356.2 3.7c-0.6 0-1.1-0.5-1.1-1 0-0.6 0.5-1.1 1.1-1.1 0.5 0 1 0.5 1 1.1 0 0.5-0.5 1-1 1z"/>
					<path id="&lt;Path&gt;" fill-rule="evenodd" class="s1" d="m231.8 40.5c-0.5 0-1-0.5-1-1.1 0-0.5 0.5-1 1-1 0.6 0 1.1 0.5 1.1 1 0 0.6-0.5 1.1-1.1 1.1z"/>
					<path id="&lt;Path&gt;" fill-rule="evenodd" class="s1" d="m205.2 158.6c-0.6 0-1.1-0.4-1.1-1 0-0.6 0.5-1.1 1.1-1.1 0.5 0 1 0.5 1 1.1 0 0.6-0.5 1-1 1z"/>
					<path id="&lt;Path&gt;" fill-rule="evenodd" class="s1" d="m305-4.1c-0.6 0-1-0.5-1-1 0-0.6 0.4-1.1 1-1.1 0.5 0 1 0.5 1 1.1 0 0.5-0.5 1-1 1z"/>
					<path id="&lt;Path&gt;" fill-rule="evenodd" class="s1" d="m216.8 131.5c-0.5 0-1-0.5-1-1 0-0.6 0.5-1 1-1 0.6 0 1 0.4 1 1 0 0.5-0.4 1-1 1z"/>
					<path id="&lt;Path&gt;" fill-rule="evenodd" class="s1" d="m328.6 31.4c-0.5 0-1-0.4-1-1 0-0.5 0.5-1 1-1 0.6 0 1 0.5 1 1 0 0.6-0.4 1-1 1z"/>
					<path id="&lt;Path&gt;" fill-rule="evenodd" class="s1" d="m350.8-41.1c0 0.4-0.4 0.8-0.9 0.8-0.5 0-0.8-0.4-0.8-0.8 0-0.5 0.3-0.9 0.8-0.9 0.5 0 0.9 0.4 0.9 0.9z"/>
					<path id="&lt;Path&gt;" fill-rule="evenodd" class="s1" d="m219.9-49.9c0 0.4-0.4 0.8-0.8 0.8-0.5 0-0.9-0.4-0.9-0.8 0-0.5 0.4-0.9 0.9-0.9 0.4 0 0.8 0.4 0.8 0.9z"/>
					<path id="&lt;Path&gt;" fill-rule="evenodd" class="s1" d="m348.1-53.9c0 0.4-0.4 0.8-0.9 0.8-0.5 0-0.8-0.4-0.8-0.8 0-0.5 0.3-0.9 0.8-0.9 0.5 0 0.9 0.4 0.9 0.9z"/>
					<path id="&lt;Path&gt;" fill-rule="evenodd" class="s1" d="m371-50.8c0 0.5-0.4 0.9-0.9 0.9-0.4 0-0.8-0.4-0.8-0.9 0-0.5 0.4-0.9 0.8-0.9 0.5 0 0.9 0.4 0.9 0.9z"/>
					<path id="&lt;Path&gt;" fill-rule="evenodd" class="s1" d="m389.9 160.2c0 0.4-0.4 0.8-0.8 0.8-0.5 0-0.9-0.4-0.9-0.8 0-0.5 0.4-0.9 0.9-0.9 0.4 0 0.8 0.4 0.8 0.9z"/>
					<path id="&lt;Path&gt;" fill-rule="evenodd" class="s1" d="m268.3 23.3c0 0.5-0.3 0.9-0.8 0.9-0.5 0-0.9-0.4-0.9-0.9 0-0.5 0.4-0.8 0.9-0.8 0.5 0 0.8 0.3 0.8 0.8z"/>
					<path id="&lt;Path&gt;" fill-rule="evenodd" class="s1" d="m258.6-47.2c0 0.5-0.4 0.9-0.9 0.9-0.4 0-0.8-0.4-0.8-0.9 0-0.4 0.4-0.8 0.8-0.8 0.5 0 0.9 0.4 0.9 0.8z"/>
					<path id="&lt;Path&gt;" fill-rule="evenodd" class="s1" d="m301.2 52.9c0 0.4-0.4 0.8-0.9 0.8-0.4 0-0.8-0.4-0.8-0.8 0-0.5 0.4-0.9 0.8-0.9 0.5 0 0.9 0.4 0.9 0.9z"/>
					<path id="&lt;Path&gt;" fill-rule="evenodd" class="s1" d="m240.3 5.4c0 0.5-0.4 0.9-0.8 0.9-0.5 0-0.9-0.4-0.9-0.9 0-0.4 0.4-0.8 0.9-0.8 0.4 0 0.8 0.4 0.8 0.8z"/>
					<path id="&lt;Path&gt;" fill-rule="evenodd" class="s1" d="m208.8 88.5c0 0.4-0.4 0.8-0.9 0.8-0.4 0-0.8-0.4-0.8-0.8 0-0.5 0.4-0.9 0.8-0.9 0.5 0 0.9 0.4 0.9 0.9z"/>
					<path id="&lt;Path&gt;" fill-rule="evenodd" class="s1" d="m220.8 135.6c0 0.5-0.4 0.8-0.9 0.8-0.5 0-0.8-0.3-0.8-0.8 0-0.5 0.3-0.9 0.8-0.9 0.5 0 0.9 0.4 0.9 0.9z"/>
					<path id="&lt;Path&gt;" fill-rule="evenodd" class="s1" d="m393.7 188c0 0.5-0.4 0.9-0.9 0.9-0.4 0-0.8-0.4-0.8-0.9 0-0.4 0.4-0.8 0.8-0.8 0.5 0 0.9 0.4 0.9 0.8z"/>
					<path id="&lt;Path&gt;" fill-rule="evenodd" class="s1" d="m239.3 34.4c0 0.5-0.4 0.8-0.9 0.8-0.4 0-0.8-0.3-0.8-0.8 0-0.5 0.4-0.9 0.8-0.9 0.5 0 0.9 0.4 0.9 0.9z"/>
					<path id="&lt;Path&gt;" fill-rule="evenodd" class="s1" d="m391.9-23.8c0 0.4-0.4 0.8-0.9 0.8-0.5 0-0.8-0.4-0.8-0.8 0-0.5 0.3-0.9 0.8-0.9 0.5 0 0.9 0.4 0.9 0.9z"/>
					<path id="&lt;Path&gt;" fill-rule="evenodd" class="s1" d="m405.2 178.3c0 0.5-0.4 0.9-0.8 0.9-0.5 0-0.9-0.4-0.9-0.9 0-0.4 0.4-0.8 0.9-0.8 0.4 0 0.8 0.4 0.8 0.8z"/>
					<path id="&lt;Path&gt;" fill-rule="evenodd" class="s2" d="m397.6 195.6c0 0.5-0.4 0.9-0.8 0.9-0.5 0-0.9-0.4-0.9-0.9 0-0.4 0.4-0.8 0.9-0.8 0.4 0 0.8 0.4 0.8 0.8z"/>
					<path id="&lt;Path&gt;" fill-rule="evenodd" class="s2" d="m386.4 167c0 0.5-0.3 0.9-0.8 0.9-0.5 0-0.9-0.4-0.9-0.9 0-0.5 0.4-0.8 0.9-0.8 0.5 0 0.8 0.3 0.8 0.8z"/>
					<path id="&lt;Path&gt;" fill-rule="evenodd" class="s1" d="m314.7-24.7c0 0.5-0.4 0.9-0.9 0.9-0.5 0-0.8-0.4-0.8-0.9 0-0.5 0.3-0.8 0.8-0.8 0.5 0 0.9 0.3 0.9 0.8z"/>
					<path id="&lt;Path&gt;" fill-rule="evenodd" class="s1" d="m340.7 136.6c-0.6 0-1-0.5-1-1 0-0.6 0.4-1 1-1 0.6 0 1 0.4 1 1 0 0.5-0.4 1-1 1z"/>
					<path id="&lt;Path&gt;" fill-rule="evenodd" class="s1" d="m386.5 99.6c0 0.5-0.4 0.8-0.9 0.8-0.4 0-0.8-0.3-0.8-0.8 0-0.5 0.4-0.9 0.8-0.9 0.5 0 0.9 0.4 0.9 0.9z"/>
					<path id="&lt;Path&gt;" fill-rule="evenodd" class="s1" d="m255.6 90.8c0 0.4-0.3 0.8-0.8 0.8-0.5 0-0.9-0.4-0.9-0.8 0-0.5 0.4-0.9 0.9-0.9 0.5 0 0.8 0.4 0.8 0.9z"/>
					<path id="&lt;Path&gt;" fill-rule="evenodd" class="s1" d="m383.8 86.8c0 0.5-0.4 0.8-0.9 0.8-0.4 0-0.8-0.3-0.8-0.8 0-0.5 0.4-0.9 0.8-0.9 0.5 0 0.9 0.4 0.9 0.9z"/>
					<path id="&lt;Path&gt;" fill-rule="evenodd" class="s1" d="m406.7 89.9c0 0.5-0.4 0.9-0.8 0.9-0.5 0-0.9-0.4-0.9-0.9 0-0.5 0.4-0.8 0.9-0.8 0.4 0 0.8 0.3 0.8 0.8z"/>
					<path id="&lt;Path&gt;" fill-rule="evenodd" class="s1" d="m294.3 93.6c0 0.4-0.4 0.8-0.8 0.8-0.5 0-0.9-0.4-0.9-0.8 0-0.5 0.4-0.9 0.9-0.9 0.4 0 0.8 0.4 0.8 0.9z"/>
					<path id="&lt;Path&gt;" fill-rule="evenodd" class="s1" d="m427.6 116.9c0 0.5-0.4 0.8-0.9 0.8-0.4 0-0.8-0.3-0.8-0.8 0-0.5 0.4-0.9 0.8-0.9 0.5 0 0.9 0.4 0.9 0.9z"/>
					<path id="&lt;Path&gt;" fill-rule="evenodd" class="s1" d="m350.4 116c0 0.5-0.4 0.9-0.9 0.9-0.4 0-0.8-0.4-0.8-0.9 0-0.4 0.4-0.8 0.8-0.8 0.5 0 0.9 0.4 0.9 0.8z"/>
					<path id="&lt;Path&gt;" fill-rule="evenodd" class="s1" d="m323.2 1.6c0 0.5-0.4 0.9-0.9 0.9-0.4 0-0.8-0.4-0.8-0.9 0-0.5 0.4-0.8 0.8-0.8 0.5 0 0.9 0.3 0.9 0.8z"/>
					<path id="&lt;Path&gt;" fill-rule="evenodd" class="s1" d="m203.1 11.5c0 0.5-0.4 0.9-0.8 0.9-0.5 0-0.9-0.4-0.9-0.9 0-0.5 0.4-0.8 0.9-0.8 0.4 0 0.8 0.3 0.8 0.8z"/>
				</g>
				<g id="&lt;Group&gt;">
					<path id="&lt;Path&gt;" fill-rule="evenodd" class="s2" d="m16.1 57.3c0 0.5 0.4 0.9 0.9 0.9 0.5 0 0.8-0.4 0.8-0.9 0-0.4-0.3-0.8-0.8-0.8-0.5 0-0.9 0.4-0.9 0.8z"/>
					<path id="&lt;Path&gt;" fill-rule="evenodd" class="s2" d="m-34.8 176.7c0 0.4 0.4 0.8 0.9 0.8 0.5 0 0.8-0.4 0.8-0.8 0-0.5-0.3-0.9-0.8-0.9-0.5 0-0.9 0.4-0.9 0.9z"/>
					<path id="&lt;Path&gt;" fill-rule="evenodd" class="s2" d="m-26.9 98c0 0.4 0.4 0.8 0.9 0.8 0.5 0 0.8-0.4 0.8-0.8 0-0.5-0.3-0.9-0.8-0.9-0.5 0-0.9 0.4-0.9 0.9z"/>
					<path id="&lt;Path&gt;" fill-rule="evenodd" class="s2" d="m13.7 120.1c0 0.4 0.4 0.8 0.9 0.8 0.4 0 0.8-0.4 0.8-0.8 0-0.5-0.4-0.9-0.8-0.9-0.5 0-0.9 0.4-0.9 0.9z"/>
					<path id="&lt;Path&gt;" fill-rule="evenodd" class="s3" d="m-30.7 145.3c0 0.4 0.3 0.8 0.8 0.8 0.5 0 0.9-0.4 0.9-0.8 0-0.5-0.4-0.9-0.9-0.9-0.5 0-0.8 0.4-0.8 0.9z"/>
					<path id="&lt;Path&gt;" fill-rule="evenodd" class="s3" d="m-31.9 223.3c0 0.4 0.4 0.8 0.9 0.8 0.5 0 0.8-0.4 0.8-0.8 0-0.5-0.3-0.9-0.8-0.9-0.5 0-0.9 0.4-0.9 0.9z"/>
					<path id="&lt;Path&gt;" fill-rule="evenodd" class="s3" d="m-1.5 150.7c0 0.5 0.4 0.8 0.9 0.8 0.4 0 0.8-0.3 0.8-0.8 0-0.5-0.4-0.9-0.8-0.9-0.5 0-0.9 0.4-0.9 0.9z"/>
					<path id="&lt;Path&gt;" fill-rule="evenodd" class="s3" d="m57.9 51c0 0.4 0.4 0.8 0.8 0.8 0.5 0 0.9-0.4 0.9-0.8 0-0.5-0.4-0.8-0.9-0.8-0.4 0-0.8 0.3-0.8 0.8z"/>
					<path id="&lt;Path&gt;" fill-rule="evenodd" class="s3" d="m-8.1 85.8c0 0.4 0.4 0.8 0.9 0.8 0.4 0 0.8-0.4 0.8-0.8 0-0.5-0.4-0.9-0.8-0.9-0.5 0-0.9 0.4-0.9 0.9z"/>
					<path id="&lt;Path&gt;" fill-rule="evenodd" class="s3" d="m-21.5 156.3c0 0.4 0.4 0.8 0.8 0.8 0.5 0 0.9-0.4 0.9-0.8 0-0.5-0.4-0.9-0.9-0.9-0.4 0-0.8 0.4-0.8 0.9z"/>
					<path id="&lt;Path&gt;" fill-rule="evenodd" class="s3" d="m47 169.6c0 0.5 0.3 0.9 0.8 0.9 0.5 0 0.8-0.4 0.8-0.9 0-0.4-0.3-0.8-0.8-0.8-0.5 0-0.8 0.4-0.8 0.8z"/>
					<path id="&lt;Path&gt;" fill-rule="evenodd" class="s3" d="m21.4 21.6c0 0.4 0.3 0.7 0.7 0.7 0.4 0 0.7-0.3 0.7-0.7 0-0.3-0.3-0.7-0.7-0.7-0.4 0-0.7 0.4-0.7 0.7z"/>
					<path id="&lt;Path&gt;" fill-rule="evenodd" class="s2" d="m128.1 14.4c0 0.4 0.3 0.7 0.7 0.7 0.4 0 0.7-0.3 0.7-0.7 0-0.3-0.3-0.7-0.7-0.7-0.4 0-0.7 0.4-0.7 0.7z"/>
					<path id="&lt;Path&gt;" fill-rule="evenodd" class="s2" d="m23.6 11.2c0 0.4 0.3 0.7 0.7 0.7 0.4 0 0.7-0.3 0.7-0.7 0-0.4-0.3-0.7-0.7-0.7-0.4 0-0.7 0.3-0.7 0.7z"/>
					<path id="&lt;Path&gt;" fill-rule="evenodd" class="s2" d="m83.5 1.8c0 0.3 0.3 0.7 0.7 0.7 0.4 0 0.7-0.4 0.7-0.7 0-0.4-0.3-0.7-0.7-0.7-0.4 0-0.7 0.3-0.7 0.7z"/>
					<path id="&lt;Path&gt;" fill-rule="evenodd" class="s2" d="m168.3 154.4c0 0.4 0.3 0.7 0.7 0.7 0.4 0 0.7-0.3 0.7-0.7 0-0.4-0.3-0.7-0.7-0.7-0.4 0-0.7 0.3-0.7 0.7z"/>
					<path id="&lt;Path&gt;" fill-rule="evenodd" class="s2" d="m247.1 164.9c0 0.4 0.3 0.7 0.7 0.7 0.3 0 0.7-0.3 0.7-0.7 0-0.4-0.4-0.7-0.7-0.7-0.4 0-0.7 0.3-0.7 0.7z"/>
					<path id="&lt;Path&gt;" fill-rule="evenodd" class="s2" d="m459.9 131.1c0 0.4 0.3 0.7 0.7 0.7 0.4 0 0.7-0.3 0.7-0.7 0-0.4-0.3-0.7-0.7-0.7-0.4 0-0.7 0.3-0.7 0.7z"/>
					<path id="&lt;Path&gt;" fill-rule="evenodd" class="s2" d="m436.1 100.8c0 0.3 0.3 0.7 0.7 0.7 0.4 0 0.7-0.4 0.7-0.7 0-0.4-0.3-0.7-0.7-0.7-0.4 0-0.7 0.3-0.7 0.7z"/>
					<path id="&lt;Path&gt;" fill-rule="evenodd" class="s3" d="m4.9 13.7c0 0.4 0.3 0.7 0.7 0.7 0.4 0 0.7-0.3 0.7-0.7 0-0.3-0.3-0.6-0.7-0.6-0.4 0-0.7 0.3-0.7 0.6z"/>
					<path id="&lt;Path&gt;" fill-rule="evenodd" class="s3" d="m88.6 74.2c0 0.4 0.3 0.7 0.7 0.7 0.4 0 0.7-0.3 0.7-0.7 0-0.4-0.3-0.7-0.7-0.7-0.4 0-0.7 0.3-0.7 0.7z"/>
					<path id="&lt;Path&gt;" fill-rule="evenodd" class="s3" d="m96.6 16.7c0 0.4 0.3 0.7 0.7 0.7 0.3 0 0.7-0.3 0.7-0.7 0-0.4-0.4-0.7-0.7-0.7-0.4 0-0.7 0.3-0.7 0.7z"/>
					<path id="&lt;Path&gt;" fill-rule="evenodd" class="s3" d="m234 155.4c0 0.4 0.3 0.7 0.7 0.7 0.4 0 0.7-0.3 0.7-0.7 0-0.4-0.3-0.7-0.7-0.7-0.4 0-0.7 0.3-0.7 0.7z"/>
					<path id="&lt;Path&gt;" fill-rule="evenodd" class="s3" d="m111.5 59.6c0 0.4 0.3 0.7 0.7 0.7 0.3 0 0.7-0.3 0.7-0.7 0-0.4-0.4-0.7-0.7-0.7-0.4 0-0.7 0.3-0.7 0.7z"/>
					<path id="&lt;Path&gt;" fill-rule="evenodd" class="s3" d="m63.4 93.7c0 0.4 0.4 0.7 0.7 0.7 0.4 0 0.7-0.3 0.7-0.7 0-0.3-0.3-0.7-0.7-0.7-0.3 0-0.7 0.4-0.7 0.7z"/>
					<path id="&lt;Path&gt;" fill-rule="evenodd" class="s3" d="m196.5 58.2c0 0.4 0.3 0.7 0.7 0.7 0.3 0 0.7-0.3 0.7-0.7 0-0.4-0.4-0.7-0.7-0.7-0.4 0-0.7 0.3-0.7 0.7z"/>
					<path id="&lt;Path&gt;" fill-rule="evenodd" class="s3" d="m-12.1 35.7c0 0.4 0.3 0.7 0.7 0.7 0.4 0 0.7-0.3 0.7-0.7 0-0.3-0.3-0.7-0.7-0.7-0.4 0-0.7 0.4-0.7 0.7z"/>
					<path id="&lt;Path&gt;" fill-rule="evenodd" class="s3" d="m50.8 35c0 0.4 0.4 0.7 0.7 0.7 0.4 0 0.7-0.3 0.7-0.7 0-0.3-0.3-0.6-0.7-0.6-0.3 0-0.7 0.3-0.7 0.6z"/>
					<path id="&lt;Path&gt;" fill-rule="evenodd" class="s2" d="m43.9 56.5c0 0.4 0.3 0.7 0.7 0.7 0.4 0 0.7-0.3 0.7-0.7 0-0.4-0.3-0.7-0.7-0.7-0.4 0-0.7 0.3-0.7 0.7z"/>
					<path id="&lt;Path&gt;" fill-rule="evenodd" class="s2" d="m38.7 119.3c0 0.4 0.3 0.7 0.7 0.7 0.4 0 0.7-0.3 0.7-0.7 0-0.4-0.3-0.7-0.7-0.7-0.4 0-0.7 0.3-0.7 0.7z"/>
					<path id="&lt;Path&gt;" fill-rule="evenodd" class="s3" d="m141.8 64.6c0 0.4 0.3 0.7 0.7 0.7 0.4 0 0.7-0.3 0.7-0.7 0-0.4-0.3-0.7-0.7-0.7-0.4 0-0.7 0.3-0.7 0.7z"/>
					<path id="&lt;Path&gt;" fill-rule="evenodd" class="s3" d="m149.4 289.5c0 0.4 0.3 0.7 0.7 0.7 0.4 0 0.7-0.3 0.7-0.7 0-0.4-0.3-0.7-0.7-0.7-0.4 0-0.7 0.3-0.7 0.7z"/>
					<path id="&lt;Path&gt;" fill-rule="evenodd" class="s3" d="m158.5 251.8c0 0.4 0.3 0.7 0.7 0.7 0.4 0 0.7-0.3 0.7-0.7 0-0.4-0.3-0.7-0.7-0.7-0.4 0-0.7 0.3-0.7 0.7z"/>
					<path id="&lt;Path&gt;" fill-rule="evenodd" class="s3" d="m264.6 254.5c0 0.3 0.3 0.7 0.7 0.7 0.4 0 0.7-0.4 0.7-0.7 0-0.4-0.3-0.7-0.7-0.7-0.4 0-0.7 0.3-0.7 0.7z"/>
					<path id="&lt;Path&gt;" fill-rule="evenodd" class="s3" d="m120.6 99c0 0.4 0.3 0.7 0.7 0.7 0.3 0 0.7-0.3 0.7-0.7 0-0.4-0.4-0.7-0.7-0.7-0.4 0-0.7 0.3-0.7 0.7z"/>
					<path id="&lt;Path&gt;" fill-rule="evenodd" class="s2" d="m457.8-32c0 0.4 0.4 0.8 0.9 0.8 0.4 0 0.8-0.4 0.8-0.8 0-0.5-0.4-0.9-0.8-0.9-0.5 0-0.9 0.4-0.9 0.9z"/>
					<path id="&lt;Path&gt;" fill-rule="evenodd" class="s2" d="m406.9 87.3c0 0.4 0.4 0.8 0.9 0.8 0.4 0 0.8-0.4 0.8-0.8 0-0.5-0.4-0.9-0.8-0.9-0.5 0-0.9 0.4-0.9 0.9z"/>
					<path id="&lt;Path&gt;" fill-rule="evenodd" class="s2" d="m414.8 8.6c0 0.4 0.4 0.8 0.9 0.8 0.4 0 0.8-0.4 0.8-0.8 0-0.5-0.4-0.9-0.8-0.9-0.5 0-0.9 0.4-0.9 0.9z"/>
					<path id="&lt;Path&gt;" fill-rule="evenodd" class="s2" d="m455.4 30.7c0 0.4 0.4 0.8 0.8 0.8 0.5 0 0.9-0.4 0.9-0.8 0-0.5-0.4-0.9-0.9-0.9-0.4 0-0.8 0.4-0.8 0.9z"/>
					<path id="&lt;Path&gt;" fill-rule="evenodd" class="s3" d="m410.9 55.9c0 0.4 0.4 0.8 0.9 0.8 0.5 0 0.8-0.4 0.8-0.8 0-0.5-0.3-0.9-0.8-0.9-0.5 0-0.9 0.4-0.9 0.9z"/>
					<path id="&lt;Path&gt;" fill-rule="evenodd" class="s3" d="m440.2 61.3c0 0.5 0.4 0.8 0.8 0.8 0.5 0 0.9-0.3 0.9-0.8 0-0.5-0.4-0.9-0.9-0.9-0.4 0-0.8 0.4-0.8 0.9z"/>
					<path id="&lt;Path&gt;" fill-rule="evenodd" class="s3" d="m499.6-38.4c0 0.5 0.4 0.8 0.8 0.8 0.5 0 0.9-0.3 0.9-0.8 0-0.5-0.4-0.8-0.9-0.8-0.4 0-0.8 0.3-0.8 0.8z"/>
					<path id="&lt;Path&gt;" fill-rule="evenodd" class="s3" d="m433.6-3.6c0 0.4 0.4 0.8 0.8 0.8 0.5 0 0.9-0.4 0.9-0.8 0-0.5-0.4-0.9-0.9-0.9-0.4 0-0.8 0.4-0.8 0.9z"/>
					<path id="&lt;Path&gt;" fill-rule="evenodd" class="s3" d="m420.2 66.9c0 0.4 0.4 0.8 0.8 0.8 0.5 0 0.8-0.4 0.8-0.8 0-0.5-0.3-0.9-0.8-0.9-0.4 0-0.8 0.4-0.8 0.9z"/>
					<path id="&lt;Path&gt;" fill-rule="evenodd" class="s3" d="m488.7 80.2c0 0.5 0.3 0.9 0.8 0.9 0.4 0 0.8-0.4 0.8-0.9 0-0.4-0.4-0.8-0.8-0.8-0.5 0-0.8 0.4-0.8 0.8z"/>
					<path id="&lt;Path&gt;" fill-rule="evenodd" class="s3" d="m463.1-67.8c0 0.4 0.3 0.7 0.7 0.7 0.4 0 0.7-0.3 0.7-0.7 0-0.3-0.3-0.6-0.7-0.6-0.4 0-0.7 0.3-0.7 0.6z"/>
					<path id="&lt;Path&gt;" fill-rule="evenodd" class="s2" d="m569.8-75c0 0.4 0.3 0.7 0.7 0.7 0.4 0 0.7-0.3 0.7-0.7 0-0.3-0.3-0.6-0.7-0.6-0.4 0-0.7 0.3-0.7 0.6z"/>
					<path id="&lt;Path&gt;" fill-rule="evenodd" class="s2" d="m465.3-78.2c0 0.4 0.3 0.7 0.7 0.7 0.4 0 0.7-0.3 0.7-0.7 0-0.4-0.3-0.7-0.7-0.7-0.4 0-0.7 0.3-0.7 0.7z"/>
					<path id="&lt;Path&gt;" fill-rule="evenodd" class="s2" d="m525.2-87.6c0 0.4 0.3 0.7 0.7 0.7 0.4 0 0.7-0.3 0.7-0.7 0-0.4-0.3-0.7-0.7-0.7-0.4 0-0.7 0.3-0.7 0.7z"/>
					<path id="&lt;Path&gt;" fill-rule="evenodd" class="s3" d="m446.6-75.6c0 0.3 0.3 0.6 0.7 0.6 0.4 0 0.7-0.3 0.7-0.6 0-0.4-0.3-0.7-0.7-0.7-0.4 0-0.7 0.3-0.7 0.7z"/>
					<path id="&lt;Path&gt;" fill-rule="evenodd" class="s3" d="m530.3-15.2c0 0.4 0.3 0.7 0.7 0.7 0.4 0 0.7-0.3 0.7-0.7 0-0.4-0.3-0.7-0.7-0.7-0.4 0-0.7 0.3-0.7 0.7z"/>
					<path id="&lt;Path&gt;" fill-rule="evenodd" class="s3" d="m538.2-72.7c0 0.4 0.4 0.7 0.7 0.7 0.4 0 0.7-0.3 0.7-0.7 0-0.4-0.3-0.7-0.7-0.7-0.3 0-0.7 0.3-0.7 0.7z"/>
					<path id="&lt;Path&gt;" fill-rule="evenodd" class="s3" d="m553.1-29.8c0 0.4 0.4 0.7 0.7 0.7 0.4 0 0.7-0.3 0.7-0.7 0-0.4-0.3-0.7-0.7-0.7-0.3 0-0.7 0.3-0.7 0.7z"/>
					<path id="&lt;Path&gt;" fill-rule="evenodd" class="s3" d="m505.1 4.3c0 0.4 0.3 0.7 0.7 0.7 0.4 0 0.7-0.3 0.7-0.7 0-0.3-0.3-0.6-0.7-0.6-0.4 0-0.7 0.3-0.7 0.6z"/>
					<path id="&lt;Path&gt;" fill-rule="evenodd" class="s3" d="m429.6-53.6c0 0.3 0.3 0.6 0.7 0.6 0.3 0 0.6-0.3 0.6-0.6 0-0.4-0.3-0.7-0.6-0.7-0.4 0-0.7 0.3-0.7 0.7z"/>
					<path id="&lt;Path&gt;" fill-rule="evenodd" class="s3" d="m492.5-54.3c0 0.3 0.3 0.7 0.7 0.7 0.4 0 0.7-0.4 0.7-0.7 0-0.4-0.3-0.7-0.7-0.7-0.4 0-0.7 0.3-0.7 0.7z"/>
					<path id="&lt;Path&gt;" fill-rule="evenodd" class="s2" d="m485.6-32.9c0 0.4 0.3 0.7 0.7 0.7 0.3 0 0.6-0.3 0.6-0.7 0-0.4-0.3-0.7-0.6-0.7-0.4 0-0.7 0.3-0.7 0.7z"/>
					<path id="&lt;Path&gt;" fill-rule="evenodd" class="s2" d="m480.4 29.9c0 0.4 0.3 0.7 0.7 0.7 0.3 0 0.6-0.3 0.6-0.7 0-0.4-0.3-0.7-0.6-0.7-0.4 0-0.7 0.3-0.7 0.7z"/>
					<path id="&lt;Path&gt;" fill-rule="evenodd" class="s3" d="m583.5-24.8c0 0.4 0.3 0.7 0.7 0.7 0.4 0 0.7-0.3 0.7-0.7 0-0.4-0.3-0.7-0.7-0.7-0.4 0-0.7 0.3-0.7 0.7z"/>
					<path id="&lt;Path&gt;" fill-rule="evenodd" class="s3" d="m562.2 9.6c0 0.4 0.4 0.7 0.7 0.7 0.4 0 0.7-0.3 0.7-0.7 0-0.4-0.3-0.7-0.7-0.7-0.3 0-0.7 0.3-0.7 0.7z"/>
					<path id="&lt;Path&gt;" fill-rule="evenodd" class="s3" d="m226.5 55.8c0 0.4 0.3 0.7 0.7 0.7 0.4 0 0.7-0.3 0.7-0.7 0-0.4-0.3-0.7-0.7-0.7-0.4 0-0.7 0.3-0.7 0.7z"/>
					<path id="&lt;Path&gt;" fill-rule="evenodd" class="s3" d="m267.9 265c0 0.4 0.4 0.7 0.7 0.7 0.4 0 0.7-0.3 0.7-0.7 0-0.4-0.3-0.7-0.7-0.7-0.3 0-0.7 0.3-0.7 0.7z"/>
					<path id="&lt;Path&gt;" fill-rule="evenodd" class="s3" d="m639.8 57.7c0 0.5 0.4 0.8 0.9 0.8 0.4 0 0.8-0.3 0.8-0.8 0-0.5-0.4-0.9-0.8-0.9-0.5 0-0.9 0.4-0.9 0.9z"/>
					<path id="&lt;Path&gt;" fill-rule="evenodd" class="s3" d="m741.2 87.7c0 0.4 0.4 0.8 0.9 0.8 0.4 0 0.8-0.4 0.8-0.8 0-0.5-0.4-0.9-0.8-0.9-0.5 0-0.9 0.4-0.9 0.9z"/>
					<path id="&lt;Path&gt;" fill-rule="evenodd" class="s3" d="m763 184c0 0.5 0.4 0.9 0.8 0.9 0.5 0 0.9-0.4 0.9-0.9 0-0.4-0.4-0.8-0.9-0.8-0.4 0-0.8 0.4-0.8 0.8z"/>
					<path id="&lt;Path&gt;" fill-rule="evenodd" class="s3" d="m681.6 51.3c0 0.5 0.4 0.9 0.8 0.9 0.5 0 0.9-0.4 0.9-0.9 0-0.4-0.4-0.8-0.9-0.8-0.4 0-0.8 0.4-0.8 0.8z"/>
					<path id="&lt;Path&gt;" fill-rule="evenodd" class="s3" d="m753.5 161.9c0 0.5 0.4 0.9 0.8 0.9 0.5 0 0.9-0.4 0.9-0.9 0-0.4-0.4-0.8-0.9-0.8-0.4 0-0.8 0.4-0.8 0.8z"/>
					<path id="&lt;Path&gt;" fill-rule="evenodd" class="s3" d="m662.3 80.3c0 0.5 0.4 0.9 0.8 0.9 0.5 0 0.9-0.4 0.9-0.9 0-0.4-0.4-0.8-0.9-0.8-0.4 0-0.8 0.4-0.8 0.8z"/>
					<path id="&lt;Path&gt;" fill-rule="evenodd" class="s3" d="m645.1 22c0 0.4 0.3 0.7 0.7 0.7 0.4 0 0.7-0.3 0.7-0.7 0-0.4-0.3-0.7-0.7-0.7-0.4 0-0.7 0.3-0.7 0.7z"/>
					<path id="&lt;Path&gt;" fill-rule="evenodd" class="s3" d="m751.8 14.8c0 0.4 0.3 0.7 0.7 0.7 0.4 0 0.7-0.3 0.7-0.7 0-0.4-0.3-0.7-0.7-0.7-0.4 0-0.7 0.3-0.7 0.7z"/>
					<path id="&lt;Path&gt;" fill-rule="evenodd" class="s3" d="m939.6 114.6c0 0.4 0.3 0.7 0.7 0.7 0.4 0 0.7-0.3 0.7-0.7 0-0.3-0.3-0.7-0.7-0.7-0.4 0-0.7 0.4-0.7 0.7z"/>
					<path id="&lt;Path&gt;" fill-rule="evenodd" class="s3" d="m647.3 11.5c0 0.4 0.3 0.7 0.7 0.7 0.4 0 0.7-0.3 0.7-0.7 0-0.4-0.3-0.7-0.7-0.7-0.4 0-0.7 0.3-0.7 0.7z"/>
					<path id="&lt;Path&gt;" fill-rule="evenodd" class="s3" d="m491.3 64.2c0 0.4 0.3 0.7 0.7 0.7 0.4 0 0.7-0.3 0.7-0.7 0-0.4-0.3-0.7-0.7-0.7-0.4 0-0.7 0.3-0.7 0.7z"/>
					<path id="&lt;Path&gt;" fill-rule="evenodd" class="s3" d="m628.6 14.1c0 0.4 0.3 0.7 0.7 0.7 0.4 0 0.7-0.3 0.7-0.7 0-0.4-0.3-0.7-0.7-0.7-0.4 0-0.7 0.3-0.7 0.7z"/>
					<path id="&lt;Path&gt;" fill-rule="evenodd" class="s3" d="m481.5 59.3c0 0.3 0.3 0.6 0.6 0.6 0.4 0 0.7-0.3 0.7-0.6 0-0.4-0.3-0.7-0.7-0.7-0.3 0-0.6 0.3-0.6 0.7z"/>
					<path id="&lt;Path&gt;" fill-rule="evenodd" class="s3" d="m512.4 34.3c0 0.4 0.3 0.7 0.7 0.7 0.3 0 0.7-0.3 0.7-0.7 0-0.4-0.4-0.7-0.7-0.7-0.4 0-0.7 0.3-0.7 0.7z"/>
					<path id="&lt;Path&gt;" fill-rule="evenodd" class="s3" d="m712.3 74.5c0 0.4 0.3 0.7 0.7 0.7 0.4 0 0.7-0.3 0.7-0.7 0-0.3-0.3-0.7-0.7-0.7-0.4 0-0.7 0.4-0.7 0.7z"/>
					<path id="&lt;Path&gt;" fill-rule="evenodd" class="s3" d="m720.3 17.1c0 0.3 0.3 0.7 0.7 0.7 0.3 0 0.6-0.4 0.6-0.7 0-0.4-0.3-0.7-0.6-0.7-0.4 0-0.7 0.3-0.7 0.7z"/>
					<path id="&lt;Path&gt;" fill-rule="evenodd" class="s3" d="m685.5 98.7c0 0.3 0.3 0.6 0.7 0.6 0.4 0 0.7-0.3 0.7-0.6 0-0.4-0.3-0.7-0.7-0.7-0.4 0-0.7 0.3-0.7 0.7z"/>
					<path id="&lt;Path&gt;" fill-rule="evenodd" class="s3" d="m735.2 59.9c0 0.4 0.3 0.7 0.7 0.7 0.3 0 0.6-0.3 0.6-0.7 0-0.3-0.3-0.6-0.6-0.6-0.4 0-0.7 0.3-0.7 0.6z"/>
					<path id="&lt;Path&gt;" fill-rule="evenodd" class="s3" d="m804.6 4.8c0 0.4 0.3 0.7 0.7 0.7 0.4 0 0.7-0.3 0.7-0.7 0-0.4-0.3-0.7-0.7-0.7-0.4 0-0.7 0.3-0.7 0.7z"/>
					<path id="&lt;Path&gt;" fill-rule="evenodd" class="s3" d="m760.9 127.7c0 0.4 0.3 0.7 0.7 0.7 0.4 0 0.7-0.3 0.7-0.7 0-0.4-0.3-0.7-0.7-0.7-0.4 0-0.7 0.3-0.7 0.7z"/>
					<path id="&lt;Path&gt;" fill-rule="evenodd" class="s3" d="m751.1 166.1c0 0.4 0.3 0.7 0.7 0.7 0.4 0 0.7-0.3 0.7-0.7 0-0.4-0.3-0.7-0.7-0.7-0.4 0-0.7 0.3-0.7 0.7z"/>
					<path id="&lt;Path&gt;" fill-rule="evenodd" class="s3" d="m610.1 208.9c0 0.4 0.3 0.7 0.7 0.7 0.4 0 0.7-0.3 0.7-0.7 0-0.4-0.3-0.7-0.7-0.7-0.4 0-0.7 0.3-0.7 0.7z"/>
					<path id="&lt;Path&gt;" fill-rule="evenodd" class="s3" d="m736 83.6c0 0.4 0.3 0.7 0.7 0.7 0.4 0 0.7-0.3 0.7-0.7 0-0.4-0.3-0.7-0.7-0.7-0.4 0-0.7 0.3-0.7 0.7z"/>
					<path id="&lt;Path&gt;" fill-rule="evenodd" class="s3" d="m611.6 36.1c0 0.4 0.3 0.7 0.7 0.7 0.3 0 0.7-0.3 0.7-0.7 0-0.4-0.4-0.7-0.7-0.7-0.4 0-0.7 0.3-0.7 0.7z"/>
					<path id="&lt;Path&gt;" fill-rule="evenodd" class="s3" d="m517.8 36.1c0 0.4 0.3 0.7 0.6 0.7 0.4 0 0.7-0.3 0.7-0.7 0-0.4-0.3-0.7-0.7-0.7-0.3 0-0.6 0.3-0.6 0.7z"/>
					<path id="&lt;Path&gt;" fill-rule="evenodd" class="s3" d="m562.1 83.6c0 0.4 0.3 0.7 0.7 0.7 0.4 0 0.7-0.3 0.7-0.7 0-0.4-0.3-0.7-0.7-0.7-0.4 0-0.7 0.3-0.7 0.7z"/>
					<path id="&lt;Path&gt;" fill-rule="evenodd" class="s3" d="m674.5 35.4c0 0.4 0.3 0.7 0.7 0.7 0.4 0 0.7-0.3 0.7-0.7 0-0.4-0.3-0.7-0.7-0.7-0.4 0-0.7 0.3-0.7 0.7z"/>
					<path id="&lt;Path&gt;" fill-rule="evenodd" class="s3" d="m667.6 56.8c0 0.4 0.3 0.7 0.7 0.7 0.3 0 0.7-0.3 0.7-0.7 0-0.3-0.4-0.7-0.7-0.7-0.4 0-0.7 0.4-0.7 0.7z"/>
					<path id="&lt;Path&gt;" fill-rule="evenodd" class="s3" d="m765.5 64.9c0 0.4 0.3 0.7 0.7 0.7 0.4 0 0.7-0.3 0.7-0.7 0-0.4-0.3-0.7-0.7-0.7-0.4 0-0.7 0.3-0.7 0.7z"/>
					<path id="&lt;Path&gt;" fill-rule="evenodd" class="s3" d="m887.7 39.5c0 0.5 0.3 0.9 0.8 0.9 0.5 0 0.9-0.4 0.9-0.9 0-0.4-0.4-0.8-0.9-0.8-0.5 0-0.8 0.4-0.8 0.8z"/>
					<path id="&lt;Path&gt;" fill-rule="evenodd" class="s3" d="m928.9 217.6c0 0.4 0.4 0.8 0.8 0.8 0.5 0 0.9-0.4 0.9-0.8 0-0.5-0.4-0.9-0.9-0.9-0.4 0-0.8 0.4-0.8 0.9z"/>
					<path id="&lt;Path&gt;" fill-rule="evenodd" class="s3" d="m920.8 172.1c0 0.5 0.4 0.9 0.9 0.9 0.4 0 0.8-0.4 0.8-0.9 0-0.4-0.4-0.8-0.8-0.8-0.5 0-0.9 0.4-0.9 0.8z"/>
					<path id="&lt;Path&gt;" fill-rule="evenodd" class="s3" d="m885.2 178.8c0 0.4 0.4 0.8 0.8 0.8 0.5 0 0.9-0.4 0.9-0.8 0-0.5-0.4-0.9-0.9-0.9-0.4 0-0.8 0.4-0.8 0.9z"/>
					<path id="&lt;Path&gt;" fill-rule="evenodd" class="s3" d="m795.3 221c0 0.5 0.4 0.9 0.8 0.9 0.5 0 0.9-0.4 0.9-0.9 0-0.4-0.4-0.8-0.9-0.8-0.4 0-0.8 0.4-0.8 0.8z"/>
					<path id="&lt;Path&gt;" fill-rule="evenodd" class="s3" d="m800.2 271.1c0 0.5 0.4 0.9 0.9 0.9 0.4 0 0.8-0.4 0.8-0.9 0-0.4-0.4-0.8-0.8-0.8-0.5 0-0.9 0.4-0.9 0.8z"/>
					<path id="&lt;Path&gt;" fill-rule="evenodd" class="s3" d="m798.7 248.9c0 0.5 0.4 0.9 0.8 0.9 0.5 0 0.9-0.4 0.9-0.9 0-0.4-0.4-0.8-0.9-0.8-0.4 0-0.8 0.4-0.8 0.8z"/>
					<path id="&lt;Path&gt;" fill-rule="evenodd" class="s3" d="m777 233c0 0.5 0.4 0.9 0.9 0.9 0.4 0 0.8-0.4 0.8-0.9 0-0.4-0.4-0.8-0.8-0.8-0.5 0-0.9 0.4-0.9 0.8z"/>
					<path id="&lt;Path&gt;" fill-rule="evenodd" class="s3" d="m867.9 190.2c0 0.4 0.4 0.8 0.9 0.8 0.5 0 0.8-0.4 0.8-0.8 0-0.5-0.3-0.9-0.8-0.9-0.5 0-0.9 0.4-0.9 0.9z"/>
					<path id="&lt;Path&gt;" fill-rule="evenodd" class="s3" d="m917.9 187.3c0 0.5 0.4 0.8 0.8 0.8 0.5 0 0.9-0.3 0.9-0.8 0-0.5-0.4-0.9-0.9-0.9-0.4 0-0.8 0.4-0.8 0.9z"/>
					<path id="&lt;Path&gt;" fill-rule="evenodd" class="s3" d="m941.8 61c0 0.5 0.4 0.9 0.9 0.9 0.5 0 0.8-0.4 0.8-0.9 0-0.4-0.3-0.8-0.8-0.8-0.5 0-0.9 0.4-0.9 0.8z"/>
					<path id="&lt;Path&gt;" fill-rule="evenodd" class="s2" d="m899.9 113.8c0 0.5 0.4 0.8 0.9 0.8 0.4 0 0.8-0.3 0.8-0.8 0-0.5-0.4-0.8-0.8-0.8-0.5 0-0.9 0.3-0.9 0.8z"/>
					<path id="&lt;Path&gt;" fill-rule="evenodd" class="s2" d="m810.5 128.9c0 0.5 0.3 0.9 0.8 0.9 0.5 0 0.8-0.4 0.8-0.9 0-0.4-0.3-0.8-0.8-0.8-0.5 0-0.8 0.4-0.8 0.8z"/>
					<path id="&lt;Path&gt;" fill-rule="evenodd" class="s2" d="m719.4 238.5c0 0.4 0.4 0.8 0.8 0.8 0.5 0 0.9-0.4 0.9-0.8 0-0.5-0.4-0.8-0.9-0.8-0.4 0-0.8 0.3-0.8 0.8z"/>
					<path id="&lt;Path&gt;" fill-rule="evenodd" class="s2" d="m946.1 243.5c0 0.5 0.4 0.9 0.8 0.9 0.5 0 0.9-0.4 0.9-0.9 0-0.4-0.4-0.8-0.9-0.8-0.4 0-0.8 0.4-0.8 0.8z"/>
					<path id="&lt;Path&gt;" fill-rule="evenodd" class="s2" d="m888.5 173.8c0 0.5 0.4 0.8 0.9 0.8 0.4 0 0.8-0.3 0.8-0.8 0-0.4-0.4-0.8-0.8-0.8-0.5 0-0.9 0.4-0.9 0.8z"/>
					<path id="&lt;Path&gt;" fill-rule="evenodd" class="s2" d="m901.4 210.6c0 0.4 0.4 0.8 0.9 0.8 0.4 0 0.8-0.4 0.8-0.8 0-0.5-0.4-0.8-0.8-0.8-0.5 0-0.9 0.3-0.9 0.8z"/>
					<path id="&lt;Path&gt;" fill-rule="evenodd" class="s2" d="m858.7 26.4c0 0.4 0.4 0.7 0.7 0.7 0.4 0 0.7-0.3 0.7-0.7 0-0.4-0.3-0.7-0.7-0.7-0.3 0-0.7 0.3-0.7 0.7z"/>
					<path id="&lt;Path&gt;" fill-rule="evenodd" class="s2" d="m813.2 152.9c0 0.3 0.3 0.6 0.7 0.6 0.4 0 0.7-0.3 0.7-0.6 0-0.4-0.3-0.7-0.7-0.7-0.4 0-0.7 0.3-0.7 0.7z"/>
					<path id="&lt;Path&gt;" fill-rule="evenodd" class="s2" d="m474.4 96.5c0 0.4 0.3 0.7 0.7 0.7 0.4 0 0.7-0.3 0.7-0.7 0-0.4-0.3-0.7-0.7-0.7-0.4 0-0.7 0.3-0.7 0.7z"/>
					<path id="&lt;Path&gt;" fill-rule="evenodd" class="s2" d="m847 133.5c0 0.4 0.3 0.7 0.7 0.7 0.4 0 0.7-0.3 0.7-0.7 0-0.4-0.3-0.7-0.7-0.7-0.4 0-0.7 0.3-0.7 0.7z"/>
					<path id="&lt;Path&gt;" fill-rule="evenodd" class="s2" d="m790.6 65c0 0.4 0.4 0.7 0.7 0.7 0.4 0 0.7-0.3 0.7-0.7 0-0.4-0.3-0.7-0.7-0.7-0.3 0-0.7 0.3-0.7 0.7z"/>
					<path id="&lt;Path&gt;" fill-rule="evenodd" class="s3" d="m881.6 11.8c0 0.4 0.3 0.7 0.7 0.7 0.4 0 0.7-0.3 0.7-0.7 0-0.4-0.3-0.7-0.7-0.7-0.4 0-0.7 0.3-0.7 0.7z"/>
					<path id="&lt;Path&gt;" fill-rule="evenodd" class="s3" d="m945.5 1.8c0 0.3 0.3 0.7 0.7 0.7 0.3 0 0.6-0.4 0.6-0.7 0-0.4-0.3-0.7-0.6-0.7-0.4 0-0.7 0.3-0.7 0.7z"/>
					<path id="&lt;Path&gt;" fill-rule="evenodd" class="s3" d="m652.8 91.3c0 0.4 0.3 0.7 0.7 0.7 0.4 0 0.7-0.3 0.7-0.7 0-0.4-0.3-0.7-0.7-0.7-0.4 0-0.7 0.3-0.7 0.7z"/>
					<path id="&lt;Path&gt;" fill-rule="evenodd" class="s3" d="m907.3 79.5c0 0.4 0.3 0.7 0.7 0.7 0.4 0 0.7-0.3 0.7-0.7 0-0.3-0.3-0.6-0.7-0.6-0.4 0-0.7 0.3-0.7 0.6z"/>
					<path id="&lt;Path&gt;" fill-rule="evenodd" class="s3" d="m829.2 27.2c0 0.4 0.3 0.7 0.6 0.7 0.4 0 0.7-0.3 0.7-0.7 0-0.4-0.3-0.7-0.7-0.7-0.3 0-0.6 0.3-0.6 0.7z"/>
					<path id="&lt;Path&gt;" fill-rule="evenodd" class="s3" d="m897.6 118c0 0.4 0.3 0.7 0.6 0.7 0.4 0 0.7-0.3 0.7-0.7 0-0.4-0.3-0.7-0.7-0.7-0.3 0-0.6 0.3-0.6 0.7z"/>
					<path id="&lt;Path&gt;" fill-rule="evenodd" class="s3" d="m882.4 35.4c0 0.4 0.3 0.7 0.7 0.7 0.4 0 0.7-0.3 0.7-0.7 0-0.4-0.3-0.7-0.7-0.7-0.4 0-0.7 0.3-0.7 0.7z"/>
					<path id="&lt;Path&gt;" fill-rule="evenodd" class="s2" d="m911.9 16.8c0 0.4 0.4 0.7 0.7 0.7 0.4 0 0.7-0.3 0.7-0.7 0-0.4-0.3-0.7-0.7-0.7-0.3 0-0.7 0.3-0.7 0.7z"/>
					<path id="&lt;Path&gt;" fill-rule="evenodd" class="s2" d="m753.6 211.4c0 0.4 0.3 0.7 0.7 0.7 0.4 0 0.7-0.3 0.7-0.7 0-0.4-0.3-0.7-0.7-0.7-0.4 0-0.7 0.3-0.7 0.7z"/>
					<path id="&lt;Path&gt;" fill-rule="evenodd" class="s3" d="m840.1 213.7c0 0.4 0.3 0.7 0.7 0.7 0.4 0 0.7-0.3 0.7-0.7 0-0.4-0.3-0.7-0.7-0.7-0.4 0-0.7 0.3-0.7 0.7z"/>
					<path id="&lt;Path&gt;" fill-rule="evenodd" class="s3" d="m867.4 106.7c0 0.3 0.3 0.6 0.7 0.6 0.4 0 0.7-0.3 0.7-0.6 0-0.4-0.3-0.7-0.7-0.7-0.4 0-0.7 0.3-0.7 0.7z"/>
					<path id="&lt;Path&gt;" fill-rule="evenodd" class="s3" d="m457.2 70c0 0.5 0.4 0.9 0.9 0.9 0.4 0 0.8-0.4 0.8-0.9 0-0.5-0.4-0.8-0.8-0.8-0.5 0-0.9 0.3-0.9 0.8z"/>
					<path id="&lt;Path&gt;" fill-rule="evenodd" class="s3" d="m479 166.4c0 0.4 0.4 0.8 0.8 0.8 0.5 0 0.9-0.4 0.9-0.8 0-0.5-0.4-0.9-0.9-0.9-0.4 0-0.8 0.4-0.8 0.9z"/>
					<path id="&lt;Path&gt;" fill-rule="evenodd" class="s3" d="m529.9 166.1c0 0.4 0.4 0.8 0.9 0.8 0.4 0 0.8-0.4 0.8-0.8 0-0.5-0.4-0.9-0.8-0.9-0.5 0-0.9 0.4-0.9 0.9z"/>
					<path id="&lt;Path&gt;" fill-rule="evenodd" class="s3" d="m469.5 144.3c0 0.4 0.4 0.8 0.8 0.8 0.5 0 0.9-0.4 0.9-0.8 0-0.5-0.4-0.9-0.9-0.9-0.4 0-0.8 0.4-0.8 0.9z"/>
					<path id="&lt;Path&gt;" fill-rule="evenodd" class="s3" d="m655.6 97c0 0.3 0.3 0.7 0.7 0.7 0.4 0 0.7-0.4 0.7-0.7 0-0.4-0.3-0.7-0.7-0.7-0.4 0-0.7 0.3-0.7 0.7z"/>
					<path id="&lt;Path&gt;" fill-rule="evenodd" class="s3" d="m428.3 56.9c0 0.4 0.3 0.7 0.7 0.7 0.4 0 0.7-0.3 0.7-0.7 0-0.4-0.3-0.7-0.7-0.7-0.4 0-0.7 0.3-0.7 0.7z"/>
					<path id="&lt;Path&gt;" fill-rule="evenodd" class="s3" d="m451.2 42.3c0 0.4 0.3 0.7 0.7 0.7 0.3 0 0.6-0.3 0.6-0.7 0-0.4-0.3-0.7-0.6-0.7-0.4 0-0.7 0.3-0.7 0.7z"/>
					<path id="&lt;Path&gt;" fill-rule="evenodd" class="s3" d="m476.9 110c0 0.4 0.3 0.7 0.7 0.7 0.3 0 0.7-0.3 0.7-0.7 0-0.4-0.4-0.7-0.7-0.7-0.4 0-0.7 0.3-0.7 0.7z"/>
					<path id="&lt;Path&gt;" fill-rule="evenodd" class="s3" d="m467.1 148.4c0 0.4 0.3 0.7 0.7 0.7 0.4 0 0.7-0.3 0.7-0.7 0-0.3-0.3-0.7-0.7-0.7-0.4 0-0.7 0.4-0.7 0.7z"/>
					<path id="&lt;Path&gt;" fill-rule="evenodd" class="s3" d="m452 65.9c0 0.4 0.3 0.7 0.7 0.7 0.4 0 0.7-0.3 0.7-0.7 0-0.4-0.3-0.7-0.7-0.7-0.4 0-0.7 0.3-0.7 0.7z"/>
					<path id="&lt;Path&gt;" fill-rule="evenodd" class="s3" d="m481.5 47.2c0 0.4 0.3 0.7 0.7 0.7 0.4 0 0.7-0.3 0.7-0.7 0-0.3-0.3-0.7-0.7-0.7-0.4 0-0.7 0.4-0.7 0.7z"/>
					<path id="&lt;Path&gt;" fill-rule="evenodd" class="s3" d="m644.9 199.9c0 0.5 0.4 0.8 0.8 0.8 0.5 0 0.9-0.3 0.9-0.8 0-0.5-0.4-0.9-0.9-0.9-0.4 0-0.8 0.4-0.8 0.9z"/>
					<path id="&lt;Path&gt;" fill-rule="evenodd" class="s3" d="m636.8 154.5c0 0.4 0.4 0.8 0.9 0.8 0.4 0 0.8-0.4 0.8-0.8 0-0.5-0.4-0.9-0.8-0.9-0.5 0-0.9 0.4-0.9 0.9z"/>
					<path id="&lt;Path&gt;" fill-rule="evenodd" class="s3" d="m601.2 161.1c0 0.4 0.4 0.8 0.8 0.8 0.5 0 0.9-0.4 0.9-0.8 0-0.5-0.4-0.9-0.9-0.9-0.4 0-0.8 0.4-0.8 0.9z"/>
					<path id="&lt;Path&gt;" fill-rule="evenodd" class="s3" d="m511.3 203.4c0 0.4 0.4 0.8 0.8 0.8 0.5 0 0.9-0.4 0.9-0.8 0-0.5-0.4-0.9-0.9-0.9-0.4 0-0.8 0.4-0.8 0.9z"/>
					<path id="&lt;Path&gt;" fill-rule="evenodd" class="s3" d="m516.2 253.5c0 0.4 0.4 0.8 0.9 0.8 0.4 0 0.8-0.4 0.8-0.8 0-0.5-0.4-0.9-0.8-0.9-0.5 0-0.9 0.4-0.9 0.9z"/>
					<path id="&lt;Path&gt;" fill-rule="evenodd" class="s3" d="m514.7 231.3c0 0.4 0.4 0.8 0.8 0.8 0.5 0 0.9-0.4 0.9-0.8 0-0.5-0.4-0.9-0.9-0.9-0.4 0-0.8 0.4-0.8 0.9z"/>
					<path id="&lt;Path&gt;" fill-rule="evenodd" class="s3" d="m493 215.4c0 0.4 0.4 0.8 0.9 0.8 0.4 0 0.8-0.4 0.8-0.8 0-0.5-0.4-0.9-0.8-0.9-0.5 0-0.9 0.4-0.9 0.9z"/>
					<path id="&lt;Path&gt;" fill-rule="evenodd" class="s3" d="m583.9 172.5c0 0.5 0.4 0.9 0.9 0.9 0.5 0 0.8-0.4 0.8-0.9 0-0.5-0.3-0.8-0.8-0.8-0.5 0-0.9 0.3-0.9 0.8z"/>
					<path id="&lt;Path&gt;" fill-rule="evenodd" class="s3" d="m633.9 169.6c0 0.5 0.4 0.9 0.8 0.9 0.5 0 0.9-0.4 0.9-0.9 0-0.5-0.4-0.8-0.9-0.8-0.4 0-0.8 0.3-0.8 0.8z"/>
					<path id="&lt;Path&gt;" fill-rule="evenodd" class="s3" d="m657.8 43.4c0 0.4 0.4 0.8 0.9 0.8 0.5 0 0.8-0.4 0.8-0.8 0-0.5-0.3-0.9-0.8-0.9-0.5 0-0.9 0.4-0.9 0.9z"/>
					<path id="&lt;Path&gt;" fill-rule="evenodd" class="s2" d="m615.9 96.1c0 0.5 0.4 0.9 0.9 0.9 0.4 0 0.8-0.4 0.8-0.9 0-0.4-0.4-0.8-0.8-0.8-0.5 0-0.9 0.4-0.9 0.8z"/>
					<path id="&lt;Path&gt;" fill-rule="evenodd" class="s2" d="m526.5 111.3c0 0.4 0.3 0.8 0.8 0.8 0.5 0 0.8-0.4 0.8-0.8 0-0.5-0.3-0.9-0.8-0.9-0.5 0-0.8 0.4-0.8 0.9z"/>
					<path id="&lt;Path&gt;" fill-rule="evenodd" class="s2" d="m435.4 220.8c0 0.5 0.4 0.8 0.8 0.8 0.5 0 0.9-0.3 0.9-0.8 0-0.4-0.4-0.8-0.9-0.8-0.4 0-0.8 0.4-0.8 0.8z"/>
					<path id="&lt;Path&gt;" fill-rule="evenodd" class="s2" d="m662.1 225.9c0 0.4 0.4 0.8 0.8 0.8 0.5 0 0.9-0.4 0.9-0.8 0-0.5-0.4-0.9-0.9-0.9-0.4 0-0.8 0.4-0.8 0.9z"/>
					<path id="&lt;Path&gt;" fill-rule="evenodd" class="s2" d="m604.5 156.1c0 0.5 0.4 0.9 0.9 0.9 0.4 0 0.8-0.4 0.8-0.9 0-0.4-0.4-0.8-0.8-0.8-0.5 0-0.9 0.4-0.9 0.8z"/>
					<path id="&lt;Path&gt;" fill-rule="evenodd" class="s2" d="m617.4 192.9c0 0.5 0.4 0.8 0.9 0.8 0.4 0 0.8-0.3 0.8-0.8 0-0.4-0.4-0.8-0.8-0.8-0.5 0-0.9 0.4-0.9 0.8z"/>
					<path id="&lt;Path&gt;" fill-rule="evenodd" class="s2" d="m529.2 135.2c0 0.4 0.3 0.7 0.7 0.7 0.4 0 0.7-0.3 0.7-0.7 0-0.4-0.3-0.7-0.7-0.7-0.4 0-0.7 0.3-0.7 0.7z"/>
					<path id="&lt;Path&gt;" fill-rule="evenodd" class="s2" d="m563 115.8c0 0.4 0.3 0.7 0.7 0.7 0.4 0 0.7-0.3 0.7-0.7 0-0.4-0.3-0.7-0.7-0.7-0.4 0-0.7 0.3-0.7 0.7z"/>
					<path id="&lt;Path&gt;" fill-rule="evenodd" class="s2" d="m506.6 47.4c0 0.3 0.4 0.7 0.7 0.7 0.4 0 0.7-0.4 0.7-0.7 0-0.4-0.3-0.7-0.7-0.7-0.3 0-0.7 0.3-0.7 0.7z"/>
					<path id="&lt;Path&gt;" fill-rule="evenodd" class="s2" d="m537.5 95.8c0 0.4 0.4 0.7 0.7 0.7 0.4 0 0.7-0.3 0.7-0.7 0-0.4-0.3-0.7-0.7-0.7-0.3 0-0.7 0.3-0.7 0.7z"/>
					<path id="&lt;Path&gt;" fill-rule="evenodd" class="s3" d="m623.3 61.9c0 0.4 0.3 0.7 0.7 0.7 0.4 0 0.7-0.3 0.7-0.7 0-0.4-0.3-0.7-0.7-0.7-0.4 0-0.7 0.3-0.7 0.7z"/>
					<path id="&lt;Path&gt;" fill-rule="evenodd" class="s3" d="m613.5 100.3c0 0.4 0.4 0.7 0.7 0.7 0.4 0 0.7-0.3 0.7-0.7 0-0.4-0.3-0.7-0.7-0.7-0.3 0-0.7 0.3-0.7 0.7z"/>
					<path id="&lt;Path&gt;" fill-rule="evenodd" class="s2" d="m469.6 193.7c0 0.4 0.3 0.7 0.7 0.7 0.4 0 0.7-0.3 0.7-0.7 0-0.3-0.3-0.6-0.7-0.6-0.4 0-0.7 0.3-0.7 0.6z"/>
					<path id="&lt;Path&gt;" fill-rule="evenodd" class="s3" d="m556.1 196c0 0.4 0.3 0.7 0.7 0.7 0.4 0 0.7-0.3 0.7-0.7 0-0.3-0.3-0.7-0.7-0.7-0.4 0-0.7 0.4-0.7 0.7z"/>
					<path id="&lt;Path&gt;" fill-rule="evenodd" class="s3" d="m583.4 89c0 0.4 0.3 0.7 0.7 0.7 0.4 0 0.7-0.3 0.7-0.7 0-0.4-0.3-0.7-0.7-0.7-0.4 0-0.7 0.3-0.7 0.7z"/>
				</g>
				<g id="&lt;Group&gt;">
					<path id="&lt;Path&gt;" fill-rule="evenodd" class="s4" d="m659.2 313.5c-1.9 0.7-15.1 5-36.2 11.3-48.7 14.5-139.6 39.3-233.2 53-82 12-165.9 15.5-225.2-4 29.8 7.1 46.7-38.7 56.1-87.1 9.9-50.5 11.6-103.9 11.6-103.9h4.6c0 0 15.1-37.1 15.9-88.7 0 0 47.7-22 83.4 50.8l5.3 7.6c0 0 31.8 81.2 78.8 116.8q0 0 0.2-0.2c1.7-1.6 15.2-14.8 18-33.2 0 0 22.8-3.1 46.3 20.4 0 0 12.8 24.3 30.3 34.1l6-1.5c0 0 77.5 43.4 138.1 24.6z"/>
					<path id="&lt;Path&gt;" fill-rule="evenodd" class="s5" d="m638.9 318.9l-15.9 5.9-161.1 59.8-72.1-6.8-116.1-10.8-53-80.3c9.9-50.5 11.6-103.9 11.6-103.9h4.6c0 0 15.1-37.1 15.9-88.7 0 0 21.5-2.3 27.7 10.3 6.2 12.5 17.2 94.3 45.6 137.1-0.9-1.7-29.8-57.4-30.8-115.7 0 0 11.6 17.1 33.8 69.1 22.2 52 60 103.4 82.9 130-1.6-2.2-54.1-71.3-71.5-115.4 0.6 1.1 35.9 71.8 66.5 91.3 30.8 19.7 13.3-31.5 13.3-31.5q0 0 0.2-0.2c1.8-1.5 16.3-14.5 18-33.2 0 0 2.3 64.4 34.2 96-0.6-0.9-19.4-28.5-22.6-58.3 0.6 1.8 19.7 60.2 60 70.7 40.9 10.6 58.9-12.4 58.9-12.4 0 0-36.3-17.4-53.9-41.5l6-1.5c0 0 10.7 27.8 44.6 35.9 32.2 7.7 69.6-4.7 73.2-5.9z"/>
					<path id="&lt;Path&gt;" fill-rule="evenodd" class="s5" d="m420.1 266.2c1.6 8.9 4.5 17.5 6.3 26.4 0.7 3.5 0.2 7.1-2.1 10-2.9 3.8-6.4 4.5-11.2 3.5-2.4-0.6-3.8-1.8-5.9-2.8-1.5-0.8-2.8-0.8-4.2-1.9-1.2-0.9-3.3-3-4.8-3.3 0.3 0.9 0.7 1.8 1.1 2.7 0.8 1.5 2.2 2.7 3.1 4.2 1.1 1.6 2 3.2 3.1 4.8 5.6 7.8 10.9 15.8 15.8 24.2 4.3 7.4 8.2 14.9 13.2 22 1.8 2.4 3.9 4.9 5.4 7.5 0.6 1 0.8 3.3 2.1 3.4-1.9-5.1-4.9-10.2-7.5-15.2-2.9-5.6-6.2-11.3-8.2-17.3-1.2-3.6-4.2-8.9-3.8-12.8 1 0.2 1.7 1.4 2.2 2.2 1.8 2.5 2.9 5.5 4.4 8.1 2.3 4.1 5.6 7.8 8.4 11.6q3.4 4.6 6.9 9.2c4.3 5.7 9.6 10.6 15.8 14.2 2.2 1.3 4.4 2.4 6.9 2.4 3.1 0 5.4-1.3 8.3-2.3 5.2-1.7 10.5-3.8 15.8-5.1 2.3-0.6 4-1.4 6.1-2.5 0.8-0.4 2.6-0.6 3.2-1.3 1.1-1 0.8-0.9 0-1.7q-1.1 0-1.8-0.9-1.3-1-2.8-1.6c-5-2.8-9.5-6.2-14-9.7-2.1-1.5-4.3-2.7-6.1-4.6-2-2.2-4.2-4-6.4-6-2.5-2.2-4.5-5-6.7-7.6-1.9-2.3-4-4.3-5.8-6.7-3.9-5.2-7-11.7-8.8-17.9-1.5-5.3-3.5-10.5-4.8-15.8-0.7-2.8-0.9-5.6-1.4-8.4-0.5-3.5-1.6-6.9-2.1-10.5-1-6.1-2.2-12.5-2.3-18.7 0-1.7 0.3-3.5-0.1-5.2-0.3-1.1-0.8-1.7-0.6-2.9 0.2 1.4-0.3 2.4-0.7 3.8-0.9 2.6-1.5 5.4-2.4 8-1.3 3.5-3.1 6.8-5.1 10-1.2 2.1-3.5 7.6-8.5 4.5z"/>
					<path id="&lt;Path&gt;" fill-rule="evenodd" class="s5" d="m296.5 144.1c1.1 4.2 1.7 7.8 2.1 12 0.5 5.2 1.5 10.1 2.5 15.2 1.5 7.8 3.5 15.5 6.1 23 1.1 3.1 1.7 7.4 3.7 10.2 1.2 1.6 3.2 2.1 4.7 3.3 4.8 3.6 9.3 8.2 12.9 13 5.1 6.8 9.9 13.7 15 20.4 5.8 7.5 11.9 14.9 18.3 22 2.5 2.8 4.7 5.6 7.6 8 0-0.9-0.6-1.2-1-1.9-1.3-2.1-2.1-4.3-3.6-6.3-4.1-5.7-7.8-11.7-11.5-17.6-1.8-2.9-4.2-5.4-5.9-8.4-1.6-2.7-2.9-5.7-4.3-8.5-3.2-6.1-6.3-12.2-9.2-18.4q-4.7-9.9-9.5-19.7c-1.5-3-2.4-6-3.6-9.1-1.1-3.2-2.8-6-3.8-9.3-2-6.6-4.6-12.8-7.3-19.1-1.5-3.6-3-6.9-5.5-9.9-3.4-4.3-7.6-8.2-9.9-13.3z"/>
					<path id="&lt;Path&gt;" fill-rule="evenodd" class="s5" d="m254.8 94.9c-1.2 9.2-3.8 18.4-4.4 27.6-0.1 0.9-0.7 5.6 0 6.4 0.5 0.4 1.7 0 2.2 0.1 1.1 0.1 0.8 0.3 1.7 0.6 2.7 0.9 4.1 1.4 5.6 3.9 5.1 8.5 7 19.3 9.4 28.8 2.8 10.9 6.8 21.3 10 32 3.3 11.3 6.9 22.5 10.4 33.8 7.8 24.9 16.5 49.3 26.2 73.6 4 9.9 7.7 19.8 12.9 29.2 3.5 6.3 6.9 12.7 10.2 19.1 2.9 5.6 6.2 12.1 11 16.3-0.4-0.4-0.2-0.8-0.5-1.4-1.1-2.2-3-3.8-4.1-6.1-3.3-6.7-6.5-13.5-9.8-20.2-3.1-6-5.5-12.4-7.8-18.7-1-2.5-2-5.5-2.3-8.2 0.9 0.2 1.2 1.5 1.6 2.3 2 3.3 4.1 6.5 6 9.9 2.4 4.2 4.4 8.5 6.6 12.8 3.2 6.2 7.7 11.3 12.2 16.6 5.7 6.5 11.5 12.7 18.4 18 1.9 1.4 4.3 2.8 6.5 3.9 0.9 0.5 2 1.2 3 0.8 0-2.1-2.4-4.5-3.6-6-4-5.3-7.6-11.2-10.7-17-3.5-6.6-7.8-12.5-10.6-19.5-1.6-4-3.6-7.9-5.3-11.9-2-4.6-3.6-9.4-5.3-14.2-5.8-15.8-12.2-31.4-17.7-47.2-2.7-7.8-5.8-15.3-8.1-23.2-2.3-7.9-4.8-15.8-7.2-23.7-4-13.4-8.2-26.9-13.1-40-4.1-11-5.8-23-9.3-34.3-1.5-4.8-2.1-9.7-3.7-14.6-1.4-3.9-2.1-8.3-3.8-12.1-1.1-2.6-2.9-5.4-4.6-7.6-1.1-1.3-2.4-2.7-3.8-3.8-2.4-2-5.2-2.4-18.2-6z"/>
					<path id="&lt;Path&gt;" fill-rule="evenodd" class="s5" d="m241.2 182.1c2.7 5.5 3.5 10.7 4.2 16.8 0.8 7.1 0.5 14.5 0.9 21.7 0.3 4.2 0.2 8.4 0.6 12.5 0.4 4.2 1.5 8.3 2.5 12.4 0.8 3.4 1.7 6 2.9 9.2 0.3 0.7 0.3 1.5 0.9 2.2 0.4-1.2 0-2.7 0.2-4 0.2-1.2 0.5-2.4 0.7-3.6 0.2-2.4-0.4-4.6-0.6-6.9-0.5-5.1-0.6-10-1.7-15-1.2-5.5-3.2-10.7-5.1-16-2.4-6.4-4.3-13-5.5-29.3z"/>
					<path id="&lt;Path&gt;" fill-rule="evenodd" class="s5" d="m336 373.1c-2.8-3.4-5.5-6.8-8.1-10.4-4.3-6.1-7.5-12.7-11-19.3-7.7-14.3-17-27.7-22.9-42.9-3.5-9.1-7.5-18.1-10.4-27.4-2.3-7.5-4.1-15.1-6.2-22.6-2.1-7.4-4.4-14.6-5.9-22.1-0.5-2.5-1-5.2-2.3-7.5 0.3 3.7 0 7.5 0 11.2 0 8.4 1.2 16.8 1.8 25.2 0.6 8.4 1.4 16.6 2.8 24.9 0.6 3.2 1.2 6.3 1.9 9.5 0.4 1.6 1.6 3.9 1.2 5.6-0.4 1.7-0.7 1.9-2.4 1.1-1.3-0.5-2.6-1.7-3.7-2.6-2-1.7-3.7-2.8-6-4.1-1.3-0.7-3.8-2.5-5.4-2.1-2 0.5-2.4 4.2-2.8 5.7-1.2 5.6-1 11-1 16.7 0 3.1-0.1 6.1 0 9.2 0 3.3 0.9 6.3 1.3 9.6 0.8 5.2 1.9 10 3.4 15 1.5 4.6 2.5 9.3 4.8 13.7 1.5 3 3.1 5.4 6.3 7 5.4 2.6 11.2 4 17.1 5.1 7.5 1.3 15 2.7 22.5 3.6 4.9 0.6 10.1 0.9 14.8 2.1 0.1-0.1 0.2-0.3 10.2-4.2z"/>
					<path id="&lt;Path&gt;" fill-rule="evenodd" class="s6" d="m439.1 241.9c0.4 3.6 0.5 7 0.8 10.6 0.5 4.8 1.7 9.6 2.5 14.4 0.8 4.6 2.2 8.8 3.5 13.3 0.8 2.4 1 4.8 1.7 7.2 1.1-0.3 1.2-6.3 1.5-7.4 0.7-2.9 1.8-3.9 3.9-1.6 5.9 6.4 9.9 14.6 14.6 21.9 6 9.2 12.1 18.9 20 26.6 6.4 6.5 14.5 11.3 23.5 12.9 4.5 0.8 9.2 1.1 13.8 1.6 3.3 0.4 6.5 1 9.7 0.4 2.7-0.4 3.7-0.9 3.8-3.6 0-1.3 0.3-1.9 0.5-3 0.3-0.9-0.1-2.1 0.4-2.9 1.1-2 3.4-1.4 5.1-1.7 1.4-0.1 1.5 0.1 1.6-1.4 0.2-2.2-2.8-5.4-3.8-7-5.1-8.5-12.1-14.9-19-21.9-5.4-5.5-11.4-10.5-17.5-15.1-3.8-2.9-7.9-6.8-10.8-10.6-3-4.1-5.1-8.7-7.9-12.8-3-4.4-7.9-8.3-12.6-10.6-3.8-1.8-7.2-3.8-11.4-4.8-4.9-1.1-9.8-1.5-23.9-4.5z"/>
					<path id="&lt;Path&gt;" fill-rule="evenodd" class="s6" d="m520.2 288.9c4.5 5.6 9.1 11 13.6 16.6 2.2 2.7 5.1 5.2 7.7 7.6 2.5 2.4 5.7 4.4 8.8 6 4.9 2.6 11.4 4.4 16.9 5.4 2.9 0.5 7.6 1.7 10.5 0.7-0.2-1-4.7-2.6-5.4-3.1-3.7-2.1-6.9-4.8-10.4-6.9-3.4-2.1-6.7-4-10-5.9-2.3-1.4-4.4-3.1-6.8-4.4-3.6-2-7.4-4.7-11.3-6.1z"/>
				</g>
				<g id="&lt;Group&gt;">
					<path id="&lt;Path&gt;" fill-rule="evenodd" class="s7" d="m631.6 322.4c72.4-23.3 91.5-98.4 91.5-98.4 0 0 2.6-6.4 12.8-11.9 0 0 3.4-6 8.1-22.2 0 0 7.7-19.1 59.6-24l3 9.1 3.8-27.2c0 0 67.6-26 89.8-61.7v132.1c0 0-186.5 90.9-268.6 104.2z"/>
					<path id="&lt;Path&gt;" fill-rule="evenodd" class="s8" d="m900.2 86.1c0 0-16.4 84.9-52.2 127 0 0 21.4-37.1 28.1-63.5l7.4-40.7c0 0-21.5 84.1-43.1 111.4 0 0 11.8-28.8 9.2-68.6l-39.2-3.9c0 0 5.3 35 2.9 59.5-2.4 24.4-14.6 42.6-14.6 42.6l8.1-76.6-3.2-7.4c0 0-15.1-1.3-21.9 10.1-6.8 11.4-14 71.6-38.1 102.9 0 0 21.3-34.7 22.3-85.5 0 0-9.2 50.4-25.3 87.2 0 0 0.2-47.9-4.8-54.7-4.9-6.7-11.5-3.9-11.5-3.9 0 0-5.8 56.4-76 93.7l169.8-4.8 86.8-66.6 18.2-100.4z"/>
					<g id="&lt;Group&gt;" style="opacity: .3;mix-blend-mode: multiply">
						<path id="&lt;Path&gt;" fill-rule="evenodd" class="s9" d="m803.3 166.5c-2.2-0.3-3.9-0.5-6-0.1-1.9 0.4-3.5 1.3-5.3 2-1.8 0.8-3.4 1.5-5 2.7-1.3 0.9-2.7 2.1-3.6 3.4-1.2 1.8-2.7 3.6-3.4 5.6-0.6 1.9-1.2 3.6-1.7 5.5-0.3 1-0.6 1.9-0.8 2.9-0.1 0.5-0.4 0.9-0.4 1.4 0.5-0.4 0.5-0.9 0.7-1.4 0.6-1.8 1.6-3.2 2.4-4.9 0.5-0.9 1.1-1.6 1.9-2.3 0.2-0.2 1.1-1.3 1.5-1.2 1 0.2 0.7 3.1 0.7 3.9 0.1 8.5-1.4 16.9-1.9 25.3-0.4 5.8-1.6 11.5-2.5 17.1-0.9 5.2-1.9 10.2-3.1 15.3-1.5 6.9-3.5 13.7-5.5 20.5-0.7 2.3-1.7 4.5-2.1 6.9-0.3 1.5-1 2.9-1.3 4.5-0.3 1.1-0.6 2.3-1 3.4-0.2 0.5-0.5 0.9-0.7 1.4-0.1 0.5-0.1 1-0.3 1.4 0.4-0.3 0.8-0.9 1.1-1.3 0.8-0.9 1.8-1.3 2.8-2 1.7-1 3.3-2 5.1-2.5 2-0.7 4.2-1.7 6.3-2 2.2-0.4 4.2-1.2 6.4-1.7 1.5-0.4 3.1-0.7 4.6-1.2 1.2-0.3 2.4-0.6 3.1-1.6 0.4-0.6 0.3-1 0.5-1.7 0.4-1.5 0.6-3 0.9-4.5 0.5-2.7 0.9-5.5 1.3-8.2 0.7-4.5 1.4-9.1 2-13.6 1.7-11.4 2.3-23 2.5-34.6 0.1-6 0.5-12 0.9-18.1 0.3-4.5 1.2-8.9 1.4-13.5z"/>
						<path id="&lt;Path&gt;" fill-rule="evenodd" class="s9" d="m810.1 152.1c1.1 6.7 3.3 13.4 4.1 20.2 0.4 3.6 0.7 7.3 1.1 10.9 0.1 0.8 0.2 4 1.2 4.1 0.1-0.6 0.4-1.2 0.5-1.8q0.8-4.1 1.1-8.2c0.2-3.7-0.6-7.3-1.5-10.9-1.2-4.9-3-9.6-6.5-14.3z"/>
						<path id="&lt;Path&gt;" fill-rule="evenodd" class="s9" d="m839.3 221.8c1.2-1.2 2.5-2.2 3.8-3.4 1.5-1.5 2.8-3.3 4.2-5 1.3-1.5 2.8-2.9 3.9-4.6 1-1.6 1.8-3.2 2.9-4.8 2.4-3.4 4.3-7.1 6.7-10.6 2.1-3.1 4.2-6.3 6.3-9.5 1.9-2.8 3.4-5.9 4.9-9 2.2-4.7 4.3-9.3 6.4-14 1.7-3.6 3.4-7.2 4.5-11 0.3-0.9 0.7-3.4 1.5-4.1-0.1 2.3 0 4.6 0 6.9 0 8.1 0.1 16.1-0.3 24.1-0.2 4.8-0.2 9.6-0.5 14.4q-0.3 3.2-0.6 6.5 0 2.5-0.5 5c-1 4.2-3.8 7.3-8.3 7-4.4-0.3-8.6-0.7-13 0.4-5.8 1.4-9.9 6.1-13.6 10.6-2.7 3.3-5.2 6.8-7.9 10.2-2.5 3.4-4.5 7.1-6.7 10.7-1.3 2.1-2.5 4.2-3.6 6.4-0.2 0.5-0.5 1.4-1 1.5 4.3-9.3 8.5-19 10.9-27.7z"/>
						<path id="&lt;Path&gt;" fill-rule="evenodd" class="s9" d="m839.3 245.7c0.3-2 0.3-3.2 1.1-5 1.2-2.6 2.7-5 4.2-7.4 3.4-5.3 8.3-10 14.5-11.8 2-0.6 4-0.9 6-0.4 2.3 0.5 4.6 2.4 6.4 3.8 1.5 1.1 3 2.4 4.2 3.8 0.5 0.6 1.6 1.7 1.5 2.6-0.6 0.2-1.1-0.4-1.7-0.4-0.4 0-0.7 0.3-1.1 0.4-1.4 0.5-2.9 0.7-4.3 1.2-11 3.5-21.8 8.4-30.8 13.2z"/>
					</g>
					<path id="&lt;Path&gt;" fill-rule="evenodd" class="s6" d="m726.4 221.5c3.2 0 4.6-0.1 7 1.8 2.6 2.1 3.8 4.9 4.8 8 1.3 4 2 7.8 2.8 11.8 0.4 1.7 0.7 3.5 0.9 5.2 0.1 1-0.2 2.5 0.5 3.3 1.6-0.6 0.7-7.1 3.1-6.8 0.1 0.8 0.6 1.7 1.6 1.5 0.5-0.1 0.8-0.7 1-1.1 1.2-1.5 2.1-3.1 3-4.9 4.6-8.9 6.7-19 9.6-28.5 1.6-5 2.5-10 3.6-15.1 0.7-3.7 0.9-7.1 1-10.9 0-2.7-0.3-6.4-3.3-7.3-4.7-1.3-10.2 3.1-12.9 6.7-3.8 5-5.1 10.8-7.4 16.5-0.6 1.7-1 3.5-1.7 5.2-0.4 0.9-1.4 2.8-0.9 3.9 0.3 0.6 1.4 1 1.8 1.5 0.5 0.7 0.8 1.8 1.1 2.5-1.6 0.5-3.3 0.1-5 0.5-3.8 1.1-7.4 2.7-10.6 6.2z"/>
					<path id="&lt;Path&gt;" fill-rule="evenodd" class="s6" d="m770.3 177c-0.7 2.6-1.4 4.6-1.7 7.3-0.5 4.3-1 8.8-1.6 13.1-0.5 3.1-1.2 6.2-1.3 9.4 0 1.2-0.2 2.9 0.1 4 0.9 0 1.2-0.5 1.7-1.1 2-2.7 3.2-6 4.4-9.2 2.4-6.8 4-15.6-1.6-23.5z"/>
					<path id="&lt;Path&gt;" fill-rule="evenodd" class="s6" d="m848.1 138.6c0.3 5.7 1.1 11.5 1.7 17.2 0.4 4 0.6 8 0.3 12-0.3 3.8-1.1 7.5-1.3 11.3-0.1 0.7-0.7 4.3-0.2 5 0.5 0.8 0.5 0.5 1.2 0.1 1.1-0.6 1.5-2.3 2.8-2.6 1.2 4.1-1.7 8.4-1.5 12.4 1.4-1.2 2.4-3.4 3.2-4.9 2.1-4 3.9-8.3 5.8-12.4 2.3-5.1 4.4-10.1 6.4-15.3 1.9-5.3 4.2-10.4 5.7-15.8 1.9-6.9 3.5-14.2 3.7-21.3 0.1-1.9 1.8-5-1.2-4.9-1.2 0-1.3 0.5-2.3 1-2.4 1.1-4.7 2.1-7.1 3.3q-3.6 1.8-7.1 3.7c-3.5 1.9-7.2 4.1-10.9 5.5-6.8 2.7-13.6 5.3-20.3 8.2-1.5 0.7-2.4 1.5-3.6 2.4-0.6 0.5-1.3 0.8-1.5 1.6 1.2 0.3 2.7 0.1 4 0.1 4.5 0 9.5-0.7 13.9 0.2 2.1 0.5 3.8 1.3 5.5 2.5 0.5 0.3 1.3 1.2 1.7 1.3 0.6-3.3 2-6.4 1.1-10.6z"/>
					<path id="&lt;Path&gt;" fill-rule="evenodd" class="s6" d="m884 106.2c-1 3.8-1.4 7.6-2.2 11.4-1.1 5.3-2.7 10.5-3.8 15.8q-1.5 6.9-3.1 13.7c-0.3 1.7-1.1 3.4-1.4 5.1-0.1 0.7-0.1 1.4-0.4 2 1 0.5 3.4-3.6 3.7-4.1 1.7-2.7 3.1-6.2 4.4-9.2 1.7-3.8 3.4-7.7 4.9-11.5 1.5-3.9 3-7.9 4-11.9 0.5-2.4 1.3-5 0.9-7.5-0.2-1.4-0.9-3.6-7-3.8z"/>
				</g>
				<path id="&lt;Path&gt;" fill-rule="evenodd" class="s10" d="m539.3 348.1c-2.4 0.7-29.6 8.5-63.9 13.5 37.7-7 61.7-13 63.9-13.5z"/>
				<g id="&lt;Group&gt;">
					<path id="&lt;Path&gt;" fill-rule="evenodd" class="s11" d="m475.4 361.6c-79.9 14.8-221.4 34-347.5 15.1-40.2-6-78.9-15.9-113.5-31q-7.3-3.2-14.4-6.7v-188c0 0 46.4 22 112.3 30.3l9.9 17.4h4.5c0 0 15.3 30.4 36 43l-0.3-11.5c0 0 1.1-0.2 3-0.5 4.2-0.5 12.3-1.3 21.8-1.3 11.7 0 25.5 1.4 36.8 6.2l6.6 10.8h5c0 0 37.9 53.9 59.7 77.6l6.5 1.6c0 0 48.6 37.9 108.5 40.9 21.7 1.1 44.7-0.9 65.1-3.9z"/>
					<g id="&lt;Group&gt;" style="opacity: .3;mix-blend-mode: multiply">
						<path id="&lt;Path&gt;" fill-rule="evenodd" class="s9" d="m0 151c0 0 9.2 111.7 49.7 154.2 0 0-18.2-33.2-27.3-97.4 0 0 5.7 12.3 39.4 24.5 0 0 37.2 84.8 74.8 116l-18.7-47.5c0 0 49 58.5 102.2 69.5 53.2 11-189.1 4.8-189.1 4.8l-34.4-61z"/>
						<path id="&lt;Path&gt;" fill-rule="evenodd" class="s9" d="m54 174.5l13.2 57.8 50.7 68.5c0 0-50.7-61.9-63.9-126.3z"/>
						<path id="&lt;Path&gt;" fill-rule="evenodd" class="s9" d="m323.1 374.5c-56.5 2.6-104.3-4.5-104.3-4.5l24.7-5.1c-34.3-4.3-72.9-17.1-72.9-17.1l-15.1-11.1-0.1-0.1c33.9 20.4 84.3 25.5 84.3 25.5-55.3-53.5-77-120.4-77-120.4l2.7-12c4.2-0.5 12.3-1.3 21.8-1.3 27.2 76.8 80.6 118.9 82.5 120.4-19.6-18.3-30.2-39.7-30.5-40.4 26.9 40.6 83.9 66.1 83.9 66.1z"/>
						<path id="&lt;Path&gt;" fill-rule="evenodd" class="s9" d="m295.3 323c0 0 9.6 27.6 22.5 38 12.9 10.3 27.8 12.8 27.8 12.8l46.9-2.9c0 0-78.8-8.2-90.7-46.3z"/>
					</g>
					<g id="&lt;Group&gt;" style="opacity: .3;mix-blend-mode: multiply">
						<path id="&lt;Path&gt;" fill-rule="evenodd" class="s9" d="m22.9 208.3c1.3 2.8 1.8 3.5 3.8 5.4 1.4 1.3 2.8 2.4 4.2 3.6 1.8 1.4 3.7 2.5 5.7 3.7 2.4 1.3 4.2 3.4 6.5 5 2.4 1.7 5.1 4 6.9 6.3 0.8 1.1 1.2 1.5 1.2 2.8 0 3.3 0.8 6.8 1.5 10.1 1.4 7.4 4.3 14.4 6 21.7 0.9 3.8 2.1 7.7 2.6 11.6 0.2 2.1 0.3 5.5-0.5 7.6-1.4 3.7-4.5 1.8-6.7 0-2.1-1.6-5.8-5.4-7.8-2-1.5 2.4-0.4 5.6 0.3 8.1 1.7 6 4.3 11.7 6.7 17.4 5.6 13.2 10.5 26.9 17.5 39.4 2.3 4.1 4.7 8.2 7 12.4 0.7 1.2 1.6 2.3 2.2 3.5 0.5 0.8 0.6 1.7 1.1 2.5-6.9-8.2-11.8-17.4-16.5-26.9-1.7-3.4-3.7-6.6-5.4-10-1.1-2.2-1.8-4.5-2.9-6.7-1-1.9-2-3.7-2.8-5.7-1.6-4.2-3.6-8.3-5-12.6-1.3-4.1-2.4-8.4-3.9-12.5-1.3-3.6-2-7.2-3-10.9-1-3.5-2.1-7-3-10.5-1.1-3.9-2.6-7.7-3.8-11.7-1.2-4-2.4-8-3.3-12.1-1.6-6.7-3.1-13.4-4.6-20.2-1.2-5.6-2.6-11.4-4-19.3z"/>
						<path id="&lt;Path&gt;" fill-rule="evenodd" class="s9" d="m2.2 148.2c-0.8 2.4-1.1 3.5-1 5.9 0 3.6 0 7.1 0.3 10.7 0.4 4.3 1 8.4 1.7 12.6 0.6 3.6 0.7 7.1 1.5 10.6 1.3 6 1.9 12.2 3 18.3 1 5.7 2.4 11.6 4 17.2 0.8 2.7 1.8 5.4 2.7 8.1 1 2.8 1.8 5.7 2.8 8.6 2.2 6.1 3.7 12.5 5.8 18.7 1.9 5.7 4.1 11.3 6.6 16.8q1.5 3.2 2.9 6.5c0.3 0.6 0.8 1.3 0.9 1.9-0.5-0.1-0.8-0.8-1.2-1.2-0.9-1.1-1.8-2.3-2.7-3.3-1.8-1.8-3.1-3.9-5.4-5.1-2-1.1-3.7-1.5-5.7-0.1-1.8 1.2-2.6 2.7-3.6 4.5-0.4 0.6-0.9 2.1-1.5 2.5-3.5 1.9-3.6-17.1-3.6-18.5 0.1-6 1-11.9 0.3-17.9-0.3-3-0.1-5.9-0.7-8.8-0.5-2.3-0.9-4.6-1.2-6.9-0.6-4.4-1.8-8.7-2.9-12.9-0.4-1.8-0.9-3.5-1.6-5.2-0.7-1.6-1.1-3.3-1.7-4.9-0.7-1.4-1.7-2.5-1.8-4 0-1.2 0-2.5 0.2-3.6 0.6-3.6 0.3-7.2 0.3-10.8 0-4.4 0.2-8.8 0.1-13.2-0.1-2-0.5-3.9-0.6-5.9 0-1.9 0.1-3.7 0-5.6 0-3.5 0.6-6.9 2.1-15z"/>
						<path id="&lt;Path&gt;" fill-rule="evenodd" class="s9" d="m118.4 302.8c3.5 5.1 6.6 10.7 8 16.7 0.5 2.2 0.5 4.9 1.2 7 0.4 1.2 1.3 1.4 2.4 1.6 1.6 0.3 3.4 0.2 5 0.5 2 0.3 3.9 0.5 5.7 1.4 2.8 1.2 5.3 3 8 4.4 1.7 0.9 3.3 1.8 4.9 2.8 0.6 0.4 1.6 1.7 2.5 1.6-0.6-0.7-1.4-1.3-2.1-1.8-2.8-2.5-5.5-5.1-8.3-7.5-8.4-7.5-16.8-14.7-27.3-26.7z"/>
					</g>
					<path id="&lt;Path&gt;" fill-rule="evenodd" class="s6" d="m0.9 151c1.8 14.9 4.4 29.7 9.5 43.9 1.1 3.1 3.2 6.7 5.8 8.9 1.4 1.4 3.4 2.1 5 3.2 2.5 1.9 5.2 3.4 7.6 5.4 6.3 5.2 13.3 9.2 20.5 13 1.8 1 3.3 2.3 5.3 3.1 1.6 0.7 3.3 1.2 5.1 1.7 3.8 1 6 5.7 7.7 8.9 2.1 3.9 4.6 7.8 6.9 11.8 1.9 3.2 3.8 6.5 5.4 9.9 2.2 4.6 4.8 8.9 6.8 13.5 2.5 5.7 6.2 11.1 9.7 16.1 1.4 1.9 2.1 4.2 3.4 6.1 1.8 2.6 3.7 5.4 5.9 7.7 1.6 1.6 4.4 5.3 6.6 5.8 1.7-1.9 5.2-3.8 4.6-6.5-0.4-2.1-2.7-4.3-3.7-6.3-1.7-3.6-4.6-7.1-7-10.2-2.3-2.8-4.6-5.9-6.6-8.9-2.4-3.5-4.1-7.7-6.8-11.1-2.3-2.9-3.9-6.2-6.2-9.1-2.5-3.1-5.1-6-7.4-9.1-3.3-4.5-6.1-9.2-9.1-13.7-2.2-3.2-4.2-5-4.5-9-0.4-5.2-1.5-10.5-2.3-15.7-1-5.9-1.4-12-3.1-17.8-1.5-5.4-3.1-12.1-7.3-16.1-1.2-1.3-2-3-3.4-4.1-3.8-2.9-9.9-3.3-14.4-4.3-3.4-0.7-6.6-1.1-9.8-2.7-2.3-1.2-4.4-2.7-6.8-3.8-1.9-1-3.8-2.1-5.9-2.9-1.2-0.5-4.4-1-11.5-7.7z"/>
					<path id="&lt;Path&gt;" fill-rule="evenodd" class="s6" d="m60.8 177.5c2.1 7.3 3.8 14.6 5.6 22 1.2 5.4 2.6 11.4 4.9 16.4 4.3 9.2 8.8 18.5 14.6 26.8 10.2 14.6 21.2 28.8 32.6 42.5 4.5 5.5 9.1 10.6 14.3 15.4 1.6 1.5 3.3 2.9 5 4.3 0.9 0.8 1.9 2 3 2.6 3 1.5 3.2-1.8 4.3-4 1.2-2.4 2.3-3.6 5.1-3.2 2.1 0.3 3.7 1.7 5.5 2.8 3.5 2.2 6.7 4.7 10 7 7.5 5.1 14.2 11.6 22.4 15.5 0.5 0.2 3.1 1.9 3.7 1.7 2.1-0.7-0.3-5-0.6-6-2.9-9.9-7.4-19.4-10.8-29.1q-2.5-7.1-5.5-13.9c-1.3-3-3.1-6-4-9.1-0.7-2.3-1.7-4.5-2.5-6.8-0.3-0.9-0.7-1.8-1-2.7-0.4-1-0.3-2.1-0.6-3.2-0.5-1.4-1.4-2.6-2-3.9-0.7-1.8-1.2-3.5-2.4-5.1-1.5-2.1-3.7-3.9-5.5-5.7-2.4-2.4-4.5-5.1-6.8-7.6-5.2-5.6-10.1-12.1-14.1-18.6-2.4-3.9-4.6-7.9-7-11.7-0.8-1.3-1.3-2.6-2.1-3.8-0.7-1.1-0.5-2-1.7-0.7-0.1 0.1-0.7 3.2-0.6 2.5-0.6 3.2 0 6.7 0.6 9.8 1.3 7.7 2.7 14.6 5.9 21.8 3.4 7.6 6.3 15.3 10.1 22.6-3.4-6.8-8.5-12.9-12.1-19.7-2-3.9-3.4-8.1-5.4-12.1-2.1-4.1-3-8.7-4.5-13-3.2-9.1-6.6-19.1-6.9-28.8 0-2-0.9-3.3-3-3.5-1.6-0.2-3.3 0.2-4.9 0-2.2-0.4-4.3-0.5-6.4-0.9-6.3-1-12.3-2.3-18.7-2.8-3.5-0.3-7.3-0.3-10.8-0.1-2.9 0.1-5.6 0.9-7.7 2.3z"/>
					<path id="&lt;Path&gt;" fill-rule="evenodd" class="s6" d="m189.7 229.1c0.2 2.1 0.1 4.8 0.9 6.8 0.3 0.9 1.1 1.9 1.4 2.8 1.7 4.2 3.7 8.2 5.4 12.3 3.6 9 9.1 17 13.8 25.3 3.6 6.5 7.3 12.7 11.7 18.6 1.7 2.3 3.4 4.6 5 7 0.8 1.2 1.8 3.3 3.3 3.7 0.9-1.9-1.5-4-0.7-6.1 0.9-2 4 1 5.3 1.5 6.9 2.8 12.7 8 19 12 4.1 2.6 8.3 4.9 12.3 7.5 1.2 0.7 3.6 2.8 5.1 2.5 0.6-1.2-0.9-2.1-1.5-3-2.4-3.6-4.6-6.9-7.4-10.3-4.2-4.7-7.1-9.9-10.2-15.4-2.7-4.7-6-9-8.9-13.7-4.8-7.9-10.1-15.6-13.8-24.1-1.3-3-3.3-5.7-4.4-8.7-0.7-1.8-1.1-3.8-1.7-5.6-1.6-5-1.9-10.5-7.5-12.4-4-1.4-7.7-1.2-11.8-1.5-2-0.1-3.7-1-5.7-0.6-1.3 0.2-2.3 1.2-9.6 1.4z"/>
				</g>
				<path id="&lt;Path&gt;" fill-rule="evenodd" class="s12" d="m0.4 296.8c0 0 95.7 86.2 322.7 77.7 226.9-8.5 325.2-58.8 325.2-58.8l-648.2-67.7z"/>
				<path id="&lt;Path&gt;" fill-rule="evenodd" class="s13" d="m0 306.8c0-0.1 91.1 38 111.3 40.5l3.9-2.3c0 0 93.1 51.4 342.5 19 178.4-23.2 442.5-150.9 442.5-150.9v286.9h-900.2z"/>
				<g id="&lt;Group&gt;">
					<path id="&lt;Path&gt;" fill-rule="evenodd" class="s14" d="m280.5 399.1c0 0 217.6 0.8 346.5-11.5 128.9-12.2 94.4-35.2 143.8-47.4 86.4-21.3 129.4-45.3 129.4-45.3v23.6c0 0-96.7 20-131.6 29.6-34.9 9.6-26.9 23.5-55.9 31.8-85.7 24.5-311.1 28.6-422 23.8z"/>
					<path id="&lt;Path&gt;" fill-rule="evenodd" class="s14" d="m329.1 412.8c0 0 174.9 13.3 294.2 9.8 119.2-3.5 110.1-34.9 173.8-47.5 63.7-12.6 103.1-2.5 103.1-2.5v12c0 0-58.2-18.4-116 3-57.8 21.5-78.7 40.5-177.6 40.7-98.9 0.1-240.2-8-240.2-8z"/>
					<path id="&lt;Path&gt;" fill-rule="evenodd" class="s15" d="m352.9 405.4c0 0.1 88.2-4 125.2-6.9 37-2.8 105.6 0 105.6 0l51-4.8 11.8-8.5c0 0-96 9.7-161.2 11.1-65.2 1.4-190 2.8-190 2.8 0 0 26.8 6.4 57.6 6.4z"/>
					<path id="&lt;Path&gt;" fill-rule="evenodd" class="s15" d="m349.6 414.5c0 0 96.3 5.1 166.4 7.8 70.1 2.7 120.2-0.2 120.2-0.2l12.1 4.7h-82.4c0 0-94.4-5.4-108.7-6-14.2-0.5-41.2 2.1-41.2 2.1l-48.8-3z"/>
					<path id="&lt;Path&gt;" fill-rule="evenodd" class="s15" d="m745.1 351.5c25.2-15.3 42-8.1 42-8.1l67.8-15.3c0 0-15.6-1.3-18.1-3-2.6-1.8 36-0.8 36-0.8l27.4-5.8v-25.3c0 0-30.1 19.7-74 30.9-44 11.1-70.9 19.3-81.1 27.4z"/>
				</g>
				<path id="&lt;Path&gt;" fill-rule="evenodd" class="s16" d="m498.9 314.7q0-0.2-0.1-0.6 0.2 0.3 0.1 0.6z"/>
				<g id="&lt;Group&gt;">
					<path id="&lt;Path&gt;" fill-rule="evenodd" class="s17" d="m766.2 349.2q-2.9 1-5.7 2.1c-1.3 0.5-3.3 0.9-4.2 2.1-0.7 0.9-0.4 1 0.5 1.2 0.7 0.1 1.5 0.5 2.2 0.7 1.7 0.4 3.5 0.4 5.2 0.4 10.8-0.1 21.5 0.3 32.3 0.3q5.5 0 11 0c0.9 0 2.1-0.2 3 0.1-0.2 1.3-2.9 2-3.8 2.7 0.4 1.7 5.2 0 4.6 2.5-0.2 0.6-1.3 1.2-1.7 1.5-2.4 1.7-5.2 2.7-7.9 3.8-3.7 1.5-7.4 2.8-11 4.3-3.1 1.2-6.3 2.2-9 4.1-0.5 0.2-2.3 1.2-1.9 1.9 0.4 0.8 2.7 0.4 3.2 0.3 2.4-0.1 4.6-0.6 6.8-1.1 3.9-0.9 7.9-1.6 11.8-2.3 7.5-1.3 15.1-2.3 22.7-3.2 4.1-0.5 8.2-0.9 12.3-1.2 3.8-0.3 7.6-0.9 11.4-0.9 3.8 0 7.6-0.6 11.4-0.3 2.3 0.2 4.8 0.6 7.2 0.3 1.4-0.1 1.4-2.2 1.9-3.4 1-2.3 1.8-4.6 2.9-6.8 1.4-3 3.2-5.7 4.8-8.6 3.1-5.7 6.6-11.1 9.8-16.7 2.3-4.1 4.4-8.2 5.4-12.8 0.2-0.8 0.7-3.1-0.3-3.6-0.5-0.2-1.2 0.1-1.6 0.2-2.2 0.8-4.4 1.6-6.6 2.4-7.4 2.9-15 5.5-22.5 7.8-9.5 2.9-19.1 5.1-28.7 7.6-5.5 1.5-10.9 2.9-16.4 4.5-5.6 1.6-11.4 2.6-17.1 3.9-11.3 2.4-23.7 2.8-32 6.2z"/>
					<path id="&lt;Path&gt;" fill-rule="evenodd" class="s17" d="m679.4 340.7c12.5-3 25.1-6 37.4-10.2 6.1-2.1 12.2-4 18.4-6 1.9-0.6 4.7-2.1 6.8-1.3-0.1 0.4-0.5 0.6-0.8 0.9-1.1 1.2-2.2 2-3.6 3-1.8 1.3-3.7 2.3-5.6 3.4-0.9 0.6-1.7 1.3-2.6 1.8 0.2 0.6 1.1 0.8 1.7 0.9 2.5 0.4 5.3-0.4 7.8-0.6 2.4-0.1 5.2-0.8 7.7-0.5 1.1 0.1 1.8 0.7 2.8 1.3 1.5 1 1.3 1.6 0.4 3-0.6 1-1.1 1.3 0.2 1.9 2.4 1.2 5.5 0.7 7.9 0.2 5.1-0.9 10-2.3 15.1-3.6 3.6-0.9 7.1-2.1 10.8-3.1 3.2-0.9 6.5-1.7 9.7-2.6 15.2-4.6 30.4-10.7 44-18.8 7.7-4.5 15.7-8.5 23.2-13.3 5.8-3.8 11.3-8.4 16.6-13 3.8-3.4 7.5-7.1 10.2-11.4 0.6-0.8 1.7-4.1 2.5-4.2-0.1 0.7-0.9 1.5-1.4 2-2.7 2.6-6.2 4.4-9.5 6-10 5.1-20.1 10-30.5 14.2-4.4 1.8-9 3.7-13.6 5-4.8 1.3-9.7 2.2-14.7 2.9-5.5 0.7-11 0.7-16.5 1.1-2.4 0.2-4.9 0.2-7.2-0.5 0.1-0.5 0.6-0.6 1-0.9q3.1-1.8 6.4-3.3c9.5-4.5 18.7-9.6 28.1-14.3 9.7-4.8 19-10.3 27.7-16.7 7.4-5.6 15.3-12.6 19.2-21.2 1.2-2.8 3.5-8.8 1.3-11.7-0.4-0.5-0.9-0.9-1.6-1-0.4-0.1-0.9 0.3-1.3 0.5-1.9 0.9-3.7 1.8-5.4 2.8-3.5 1.9-6.7 4.2-10.1 6.2-5.1 2.9-10.4 5.6-15.7 8-12.7 5.9-25.4 11.9-38.5 16.8-13.6 5-26.8 10.8-40.4 15.6-7.6 2.7-15.4 5-23 7.5-7.4 2.4-14.7 5-22.1 7.1-12.2 3.5-24.7 6.6-36.6 11-11.1 4-22.2 7.8-33.4 11.5-4.1 1.3-7.9 2.9-11.8 4.9-0.8 0.4-3.6 1.2-4 2.1-1 2.2 5.2 3.3 6.3 3.5 7.3 1.5 14.9 0.2 22-1.5 10.7-2.5 21.3-6 31.8-9.4 6-2 12.2-3.8 18.1-6 6.7-2.4 13.2-5 20.1-6.5 2.3-0.4 14.7-3.2 13.2 2.2-0.6 2-1.8 3.6-3.4 4.9-3.2 2.7-7.3 4.7-11 6.8-12.2 7-24.7 13.6-38 18.6z"/>
					<path id="&lt;Path&gt;" fill-rule="evenodd" class="s18" d="m274.6 374.6c0 0 150.1 3.5 258.2-7.6 0 0-102.1 12.1-175.9 13.7-73.8 1.5 68.8 15.2 68.8 15.2 0 0 163.1 4.5 255.9-15.7 0 0-130.1 3-147.3-1.1-17.2-4 59.8-12.5 98.9-31 39.1-18.5-11-11.9-18.6-13.4-7.5-1.5 17-12.3 17-12.3 0 0-148.8 54.4-357 52.2z"/>
				</g>
				<path id="&lt;Path&gt;" fill-rule="evenodd" class="s8" d="m639.1 318.8l-0.2 0.1q0.1-0.1 0.2-0.1z"/>
				<path id="&lt;Path&gt;" fill-rule="evenodd" class="s19" d="m336 345.1c0 0 30.5 17.9 70.2 21.5 0 0-49.2 10.2-115 7.2 0 0 192.2 10.2 347.7-54.9 0 0-113.4 42.1-199 44.6-62.5 1.8-103.9-18.4-103.9-18.4z"/>
			</g>
		</g>
	</g>
</svg>