<svg version="1.2" xmlns="http://www.w3.org/2000/svg" viewBox="0 0 900 500" width="900" height="500">
	<title>imageillustration-PARALLAX</title>
	<style>
		.s0 { fill: #d3ffff } 
		.s1 { fill: #d3e7e9 } 
	</style>
	<g id="the moon">
		<g id="&lt;Group&gt;">
			<path id="&lt;Path&gt;" fill-rule="evenodd" class="s0" d="m668.6 161.1c0 45.9-37.2 83.1-83.1 83.1-45.9 0-83.1-37.2-83.1-83.1 0-45.9 37.2-83.2 83.1-83.2 45.9 0 83.1 37.3 83.1 83.2z"/>
			<g id="&lt;Group&gt;" style="opacity: .5;mix-blend-mode: multiply">
				<path id="&lt;Path&gt;" fill-rule="evenodd" class="s1" d="m530.6 127.6c-3.5 3.7-6.1 7.4-8 12.2-2.4 6.3-4.7 12.5-5.7 19.3-1.1 7.3-1.4 14.3-1.2 21.7 0.1 6.4 1.3 13.8 4.8 19.3 3.8 6.1 10.2 8.1 15.3 12.7 3.3 2.9 5.6 6.8 8.2 10.3 2.1 2.9 4.7 4.6 8.3 4.8 2.9 0.1 5.1 0.7 8-0.2 1.9-0.7 3.4-1.8 5.4-2.4 2.3-0.7 4.3-0.8 6.8-0.8 3.3-0.1 2.9 1.8 4.2 4 1 1.8 2.5 4.9 4.7 5.5 1.9 0.6 4.2-1.4 6-1.9 2-0.7 4.1-1.4 6.2-1.5 5.5-0.3 9.2-8.2 6.7-13.1-1.1-2-2.8-5-5.2-5.8-2.4-0.8-3.6 0.1-4.9 2.1-1.3 2-2.1 4.4-3.3 6.5-0.6 0.8-1.7 2.5-2.7 2.8-3 1-6.6-0.8-9.6-0.7-3.7 0.2-7.3 1.4-10.8 2.1-1.2 0.2-2.7-0.1-3.9 0-0.8 0-1.4 0-2.2-0.2-0.3-0.1-2.5-0.5-2.6-0.6-0.5-0.5-0.2-3.2 0-3.8 0.5-1.2 1.9-2.4 2.6-3.6 1.1-1.8 3.2-3.2 4.8-4.7 0.8-0.8 1.3-0.9 2.2-1.5 1.1-0.7 1.7-1.7 2.7-2.6 3.4-3.1 9.2-1.7 12.7-4.6 1.1-1 1.6-2.8 2-4.1 1-2.9 2.1-5.6 2.6-8.5 0.9-6.2 2.6-12.5 4.3-18.5 1.1-4 2.7-7.9 3.2-12 0.4-3.7 0.3-8.1 0-11.8-0.8-8.7-4.6-15.6-11.7-20.6-7.2-5.1-16.1-7.6-24.7-8.5-6.3-0.6-12 0.6-25.2 8.7z"/>
				<path id="&lt;Path&gt;" fill-rule="evenodd" class="s1" d="m631.5 164.2c-3.6 4.9-6.1 9.8-7.1 15.9-0.6 3.8 0.8 6.3 3.7 8.8 1.5 1.3 2.8 4.2 4.8 5 1.8 0.7 4.1-1.2 5.5-2 3.4-2 5.9-4.6 8.6-7.3 3.2-3.1 7.3-6.4 8.2-10.9 1-4.9-2.2-9.7-6-12.3-4.7-3.3-10.1-3.3-17.7 2.8z"/>
				<path id="&lt;Path&gt;" fill-rule="evenodd" class="s1" d="m629.5 134.4q-1.9-1.6-4.1-2.9-0.3-1.6-0.6-3.2c-0.5-2.6-1.1-5.1-0.6-7.8 0.8-4.3 4.6-4.9 8.6-4.4 4.4 0.6 8.2 3 7.5 7.9-0.3 2.2-3.6 11.4-6.7 11.1z"/>
				<path id="&lt;Path&gt;" fill-rule="evenodd" class="s1" d="m548.9 96.5c-3.2-0.5-4-1-6.5-0.1-2 0.7-3.8 1.6-5.5 2.8-4.4 3.2-9 7.9-11 13.1-1.1 2.7-1.4 6 1.4 7.8 3.2 2.1 8.1 1.7 11.8 2.2 4.6 0.6 8.5 1.8 13.3 0.9 5.2-1 10.9-2.3 14.7-6.2 1.5-1.4 2.7-3.2 3.1-5.2 0.5-2.5-0.5-4.4-1.7-6.5-1.5-2.7-3.7-5.6-6.5-7.1-2.1-1.1-4.6-1.5-13.1-1.7z"/>
			</g>
			<g id="&lt;Group&gt;" style="opacity: .76;mix-blend-mode: multiply">
				<path id="&lt;Path&gt;" fill-rule="evenodd" class="s1" d="m529.9 130.6c-0.9 0.9-1.8 1.7-2.4 2.8-0.8 1.3-1.6 2.6-2.2 4-0.7 1.7-1.5 3.3-2 5-0.5 1.4-0.6 3-0.9 4.5-0.4 2.6-1.3 5.2-2.2 7.7-0.8 2.5-1.3 5-2 7.5-0.8 2.7-1.6 5.2-1.6 8.1q0 1.9 0.4 3.7c0.1 0.6 0.2 1.8 0.8 2.1 0.2 0.2 0.7 0.1 1 0.1 0.2 0.1 0.8 0.4 1 0.5 0.8 0.5 1.2 1.5 1.5 2.3 0.6 1.3 1.3 2.7 1.8 4.1 0.4 1.2 0.8 2.5 1.1 3.7 0.5 1.6 0.6 3.5 1.5 4.8 1.2 1.7 2.6 1.6 4.5 1.6 2.3 0 4.7 0.1 6.8 0.9 1.8 0.7 3.4 1.9 4.8 3.2 0.7 0.7 1.8 2.2 2.9 2 0.7-0.2 1.7-1.4 2.2-1.9 1.1-1.2 1.7-2.5 2.4-3.9 2.4-5.1 6.4-10.9 2.2-16.2-0.9-1.1-2.3-2.1-3.8-1.8-2 0.6-3.2 3.3-3.4 5.1-0.3 1.9-0.4 3.2 0.5 4.9 0.3 0.5 0.5 1 0.8 1.5 0.4 0.5 0.7 0.6 0.6 1.3-0.1 1.6-4.2 2.8-5.7 2.7-1.2-0.1-2.5-0.8-3.7-1-2.1-0.4-4.1-1.5-5.8-2.9-2.6-2.2-2.6-5.3-3-8.5-0.4-3.2-1.9-5.9-2.7-9-0.7-2.5-0.7-5.8 0.4-8.2 1.2-2.7 3.2-5.4 5-7.7 3-3.9 7.9-8 12.8-9.2 1-0.2 1.7-0.5 2.2 0.6 0.5 1.2-0.1 3.2-0.3 4.5-0.3 1.3-0.8 2.5-0.7 3.9 0.1 1 0.5 2.1 0.9 3 0.6 1.1 1.6 1.7 2.5 2.6 1 1.1 1.4 2.1 1.6 3.5 0.2 1.3 0.3 2.4 1.4 3.3 1 0.8 2.4 0.8 3.6 1 4.8 0.6 10.6 0.1 14.6-2.9 4-3 6-7.5 7.6-12 1.9-5.2 2.9-11.3 1.1-16.7-0.8-2.5-2-4.7-3.3-7-1.1-2-2.1-3.9-3.9-5.4-2-1.7-4-2.9-6.7-3.4-2.5-0.4-5.2-0.3-7.7-0.2-2.7 0-5.3 0.5-8 0.8-2.3 0.2-4.8 0.3-7.1 0.7-3 0.5-5.5 1.5-7.5 3.8-2.3 2.5-4.1 5.8-3.9 6.1z"/>
				<path id="&lt;Path&gt;" fill-rule="evenodd" class="s1" d="m534.8 113.9c-2-0.7-3.9-1.4-4.5-3.8-0.4-2 0.6-4.2 1.9-5.7 2.1-2.4 5.1-3.5 8.1-4.1 2.9-0.7 5.4-1.7 8.2-2.6 2.2-0.7 5.2-0.8 7.4-0.4 1.7 0.3 3.9 0.7 5.4 1.5 1.5 0.9 2.9 2.1 3.1 3.9 0.2 1.6-0.3 3.5-1.5 4.5-1.2 1-2.5 1.7-3.5 2.9-1.3 1.5-1.5 3.4-2.6 5-1.1 1.6-1.8 2.4-3.8 2.7-2.3 0.3-5.4 0.7-7.5-0.7-2.6-1.8-0.9-5.6-2.9-7.6-0.8-0.8-1.8-0.6-2.8-0.2-1.6 0.7-3.2 1.2-5 4.6z"/>
				<path id="&lt;Path&gt;" fill-rule="evenodd" class="s1" d="m566.3 109.7c-0.6 1.1-1.9 2.9-2 4.3-0.1 0.9 0.6 1.4 1.6 1.5 1 0 2.4-0.6 2.8-1.6 0.6-1.1 0.1-2-0.1-3z"/>
				<path id="&lt;Path&gt;" fill-rule="evenodd" class="s1" d="m583 164.7c-2 1.9-4.1 4-5.5 6.5-0.5 1.1-0.8 2.2-0.9 3.4-0.2 2.2-0.4 4.4-0.5 6.7-0.1 2.3-3.4 21.2 2.5 18.4 3-1.4 3-6 3.3-8.8q0.5-4.7 2.5-9c0.7-1.4 1.1-2.9 1.6-4.3 0.4-1.2 1-2.3 1.4-3.5 0.7-1.6 0.7-3.7 0.4-5.4q-0.1-1.5-1-2.6c-0.3-0.3-0.5-0.6-3.8-1.4z"/>
				<path id="&lt;Path&gt;" fill-rule="evenodd" class="s1" d="m590.5 184.8c-1.9 3-3.2 6.4-3.9 10-0.2 0.9-0.4 2.3 0.3 3.2 0.8 1 2.7 0.9 3.8 0.7 2.4-0.4 5.8-1.5 6.5-4.1 0.9-3.3-1.7-6-3.6-8.3z"/>
				<path id="&lt;Path&gt;" fill-rule="evenodd" class="s1" d="m644 199.5c-4 6.6-10.7 11-16.6 15.8-2.4 2-5 4.2-6.5 7.1-0.8 1.4-2.2 4.6-1.5 6.4 0.5 1.3 2 0.4 2.9-0.1 2.4-1.2 4.6-3 6.9-4.5 2.7-1.8 5.6-3.5 8.4-5.1 2.2-1.1 4.6-2.2 6.6-3.6 3-2 5.8-3.8 7.8-6.9 2.7-4 4.7-8.5 6.2-13.1 1-2.8 1-7.5-3.2-6.7-2.1 0.4-4.1 2.2-5.7 3.5-2.8 2.3-4.9 5.4-5.3 7.2z"/>
				<path id="&lt;Path&gt;" fill-rule="evenodd" class="s1" d="m646.2 163.9c-1.5-1.2-2-1.8-3.9-1.4-1.2 0.2-2.8 0.9-3.9 1.5-3 1.4-5.8 4.5-7.3 7.5-0.6 1.3-2.1 5.5-0.8 6.8 0.4 0.4 2.1 0.4 2.6 0.5 1.1 0.2 2 0.5 2.9 1.2 1.2 1 1.6 2.6 3.4 2.9 3.2 0.6 5.8-1.4 7.9-3.5 1.9-1.8 4.4-5.1 4.1-7.9-0.2-1.3-1-2.7-1.8-3.6-1-1.2-2.4-1.8-3.2-4z"/>
				<path id="&lt;Path&gt;" fill-rule="evenodd" class="s1" d="m631.5 118.1c-0.9-0.1-2.3-0.5-3.2-0.2-0.4 0.2-0.9 0.7-1.2 0.9-1 0.8-1.7 1.4-1.9 2.6-0.5 2.2 1.8 5.1 3.5 6.4 1.7 1.3 4.2-0.4 5.1-2.1 0.5-1.1 1.1-2.5 1.1-3.7 0.1-1.8-1.1-2.8-2.3-3.9z"/>
				<path id="&lt;Path&gt;" fill-rule="evenodd" class="s1" d="m620.1 86.6c-1.8-0.6-2.6-1.1-4.3-0.4-1.4 0.6-2.7 1.3-2.9 2.9-0.6 3.7 3.8 7 6.8 8.2 4.6 1.6 9.6 1.4 13.7 4.1 2.9 1.9 5.2 4.6 7.1 7.6 0.8 1.2 1.1 2.8 1.6 4.1 0.5 1.5 1 3 1.2 4.6 0.7 4 1 8.2 2 12.1 0.6 2.8 1.8 5.9 5.1 4.7 1.8-0.6 3-2.5 5.2-2 2.3 0.5 3.7 4 4.3 6 1 3.7 0.9 7.6 1.4 11.3 0.1 0.8 0.8 5.6 2.3 5 0.2-0.1 0.7-2.3 0.8-2.6 0.2-1.4 0.1-2.8 0.3-4.2 0.6-3-0.5-6.6-1.6-9.4-1.1-2.8-2-5.7-3-8.5-2.3-6.3-4-13-8.6-18.1-2.1-2.5-4.4-5-6.8-7.2-2.8-2.5-6-4.2-9-6.4-1.4-1.1-2.9-1.9-4.2-3.1-1.4-1.3-3.3-2.3-5-3.3-1.3-0.8-2.4-1.8-3.8-2.6-1-0.5-2.2-1.1-2.6-2.8z"/>
				<path id="&lt;Path&gt;" fill-rule="evenodd" class="s1" d="m604.6 86.6c-4.1 2-9.1 2.4-13.5 1.6-1.3-0.3-2.9-0.9-3.7-2.2-0.9-1.6 0.7-2.7 1.9-3.5 1.2-0.7 2.3-1.3 3.7-1.2 1.7 0.2 3.5 0.9 5.1 1.5 1.7 0.6 3.3 1.6 4.9 2.3 1 0.4 1.6 1.2 1.6 1.5z"/>
			</g>
		</g>
	</g>
</svg>